<?xml version="1.0" encoding="UTF-8" standalone="no"?>
<svg
   xmlns:dc="http://purl.org/dc/elements/1.1/"
   xmlns:cc="http://creativecommons.org/ns#"
   xmlns:rdf="http://www.w3.org/1999/02/22-rdf-syntax-ns#"
   xmlns:svg="http://www.w3.org/2000/svg"
   xmlns="http://www.w3.org/2000/svg"
   xmlns:sodipodi="http://sodipodi.sourceforge.net/DTD/sodipodi-0.dtd"
   xmlns:inkscape="http://www.inkscape.org/namespaces/inkscape"
   version="1.1"
   id="Layer_1"
   x="0px"
   y="0px"
   width="1750px"
   height="980px"
   viewBox="0 0 1750 980"
   enable-background="new 0 0 1750 980"
   xml:space="preserve"
   sodipodi:docname="main.svg"
   inkscape:version="1.0beta2 (unknown)"><metadata
   id="metadata449"><rdf:RDF><cc:Work
       rdf:about=""><dc:format>image/svg+xml</dc:format><dc:type
         rdf:resource="http://purl.org/dc/dcmitype/StillImage" /><dc:title></dc:title></cc:Work></rdf:RDF></metadata><defs
   id="defs447"><rect
     x="358.99172"
     y="105.90965"
     width="74.918588"
     height="58.514091"
     id="rect457" /></defs><sodipodi:namedview
   pagecolor="#ffffff"
   bordercolor="#666666"
   inkscape:document-rotation="0"
   borderopacity="1"
   objecttolerance="10"
   gridtolerance="10"
   guidetolerance="10"
   inkscape:pageopacity="0"
   inkscape:pageshadow="2"
   inkscape:window-width="1366"
   inkscape:window-height="716"
   id="namedview445"
   showgrid="false"
   inkscape:zoom="0.55714286"
   inkscape:cx="875"
   inkscape:cy="490"
   inkscape:window-x="0"
   inkscape:window-y="25"
   inkscape:window-maximized="1"
   inkscape:current-layer="g10" />
<g
   id="g10">
	<rect
   fill-rule="evenodd"
   clip-rule="evenodd"
   fill="#FFFFCC"
   width="1750"
   height="980"
   id="rect2" />
	<rect
   fill-rule="evenodd"
   clip-rule="evenodd"
   fill="#FF9933"
   width="525"
   height="980"
   id="rect4" />
	
	<rect
   x="62"
   y="887"
   fill-rule="evenodd"
   clip-rule="evenodd"
   fill="#FFFFCC"
   width="401"
   height="36"
   id="rect8" />
<text
   xml:space="preserve"
   style="font-style:normal;font-variant:normal;font-weight:normal;font-stretch:normal;font-size:158.893px;line-height:1.25;font-family:Z003;-inkscape-font-specification:Z003;fill:#000000;fill-opacity:1;stroke:none;stroke-width:1.1917"
   x="332.33484"
   y="327.59775"
   id="text453"
   transform="scale(0.73003448,1.3697983)"><tspan
     sodipodi:role="line"
     id="tspan451"
     x="332.33484"
     y="327.59775"
     style="font-style:italic;font-variant:normal;font-weight:500;font-stretch:normal;font-family:Z003;-inkscape-font-specification:'Z003 Medium Italic';text-align:center;text-anchor:middle;fill:#ffffff;stroke-width:1.1917">CV Maker</tspan></text><text
   xml:space="preserve"
   id="text455"
   style="fill:black;fill-opacity:1;line-height:1.25;stroke:none;font-family:sans-serif;font-style:normal;font-weight:normal;font-size:40px;shape-inside:url(#rect457);white-space:pre;" /></g>
<g
   id="g56">
	<path
   fill="#D9D997"
   d="M1018.6,526.1l14.7-2.3c0.8,4.1,1.5,8.2,2.3,12.3l-14.7,2.3C1020,534,1019.4,530.5,1018.6,526.1   L1018.6,526.1z"
   id="path12" />
	<path
   fill-rule="evenodd"
   clip-rule="evenodd"
   fill="#D9D997"
   d="M1347.9,251.1l-0.7-3.9l51.2-9.5c2.3-0.5,2.5-2.8,3.4-4.9l36-83.6   c13.6,30,14.3,62.9,15,93.3c0.5,19.4,0.9,37.8,4.6,53.9c7.8,33.8,28.4,50.1,51.7,68.6c21.7,17.2,45.8,36.3,63.6,73.2l1.1-0.5   l-5.5,3.1c-16.8,9.3-18.6,29-13.5,47.4c40.4,145.6,179.9,74.5,73.3-40.8c-13-14.1-30.6-22.9-47.4-13.5l-5.8,3.2   c-18-37.4-42.3-56.6-64.2-74c-23-18.1-43.3-34.2-50.9-67.2c-3.6-15.8-4.1-34.1-4.5-53.4c-1.3-58.6-2.9-126.6-94.6-166.2   c-38.5-16.6-84.2-16.6-128.8-6.7c-53.3,11.9-105,37.9-140.6,66.5c-32.5,26.2-58.7,56.3-81.3,86.5l-78.9,14.7   c-2.3,0.4-5,3.3-3.4,4.9l40.3,41.1l-1.2,1.7c-10,15.1-19.5,29.5-28.9,42.6c-0.5-0.7-0.9-1.3-1.4-1.9c-9.6-13.1-21.7-24.4-35.2-31.7   c-13.7-7.4-28.9-10.7-44.8-7.9c-10.4,1.9-21.1,6.4-31.7,14.2c-14.2,10.4-21.6,26.9-22.5,43.3c-0.5,8.9,0.9,17.8,4.3,25.7   c3.4,7.9,8.6,14.7,15.7,19.5c10.4,7,24.6,9.6,42.6,4.8c27.8-7.5,50.2-30.7,72.9-61.7c9.3,13.9,15.8,29.4,18.4,44   c3.5,19.5-1.6,39.9-6.5,60.3c-6.1,24.6-12.1,49.1-3.1,71.8c4.4,11,14.2,18.1,26.3,22.3c14.6,5.1,32.4,5.7,47.1,3.5l-0.4-2.5   c-14.3,2.2-31.6,1.6-45.9-3.4c-11.4-3.9-20.7-10.6-24.8-20.8c-8.7-21.9-2.8-46,3.1-70.3c5-20.6,10.1-41.3,6.6-61.3   c-2.7-15.2-9.5-31.4-19.2-45.8c9.6-13.3,19.3-27.9,29.5-43.3l0.9-1.3l23.5,23.9c1.6,1.6,2.6,3.8,4.9,3.4l51.2-9.6l0.7,4l-41.8,7.8   c-7.5,1.4-12.5,8.6-11.1,16.1l46.5,249.4c1.4,7.5,8.6,12.4,16.1,11.1l381.4-71.1c7.5-1.4,12.4-8.6,11.1-16.1l-46.5-249.4   c-1.4-7.5-8.6-12.5-16.1-11.1L1347.9,251.1z M1435,143.3c-0.4,0-0.8,0-1.1,0.1l-420.3,78.4c22.1-29.4,47.7-58.5,79.2-83.9   c35.3-28.4,86.6-54.2,139.6-66c44.1-9.8,89.4-9.8,127.3,6.6C1399.6,95.6,1422.1,118.3,1435,143.3L1435,143.3z M936.4,329.5   c-0.6-0.9-1.2-1.7-1.9-2.6c-9.4-12.7-21.1-23.8-34.4-31c-13.2-7.1-27.9-10.4-43.1-7.7c-10.1,1.8-20.4,6.2-30.8,13.8   c-13.5,9.9-20.6,25.8-21.4,41.5c-0.5,8.5,0.9,17.1,4.1,24.6c3.2,7.5,8.1,13.9,14.8,18.5c9.8,6.6,23.4,9,40.7,4.4   C891.6,383.7,913.8,360.5,936.4,329.5L936.4,329.5z"
   id="path14" />
	<path
   fill-rule="evenodd"
   clip-rule="evenodd"
   fill="#336699"
   d="M1561.3,433.6l12.4-6.9c16.8-9.3,34.4-0.6,47.4,13.5   c106.6,115.3-32.9,186.5-73.3,40.8C1542.7,462.5,1544.6,442.9,1561.3,433.6L1561.3,433.6z"
   id="path16" />
	<path
   fill-rule="evenodd"
   clip-rule="evenodd"
   fill="#1E466E"
   d="M1579.9,452.5L1579.9,452.5c1.3-0.7,2.9-0.3,3.7,1.1l6.2,11.1   c0.7,1.3,0.2,2.9-1,3.7l0,0c-1.3,0.7-3,0.2-3.7-1.1l-6.2-11.1C1578.1,454.9,1578.6,453.2,1579.9,452.5L1579.9,452.5z"
   id="path18" />
	<path
   fill-rule="evenodd"
   clip-rule="evenodd"
   fill="#1E466E"
   d="M1566.8,430.5l1.3-0.7l9.1,16.4c4.5-2,9.9-0.3,12.4,4.1l6.1,11.1   c2.6,4.6,0.9,10.4-3.7,13l0,0c-4.6,2.6-10.4,0.9-13-3.7l-6.2-11.1c-2.4-4.4-1-9.9,3.1-12.6L1566.8,430.5z M1577.3,447.7   L1577.3,447.7c3.9-2.2,8.9-0.8,11.1,3.2l6.5,11.1c2.2,3.9,1.2,8.9-2.8,11.1v0c-5,2.2-9.3,0.7-11.4-3.2l-6.3-11.1   C1572,454.9,1573.3,449.9,1577.3,447.7L1577.3,447.7z"
   id="path20" />
	<path
   fill="#336699"
   d="M1012.9,526.5c-14.6,2.2-32.4,1.6-47.1-3.5c-12-4.2-21.9-11.3-26.3-22.3c-9-22.7-3-47.1,3.1-71.8   c5-20.3,10-40.8,6.5-60.3c-2.6-14.6-9.1-30.1-18.4-44c-22.7,31-45.1,54.2-72.9,61.7c-18.1,4.8-32.3,2.2-42.6-4.8   c-7.1-4.8-12.4-11.6-15.7-19.5c-3.3-7.8-4.8-16.7-4.3-25.7c0.9-16.4,8.3-32.9,22.5-43.3c10.6-7.9,21.3-12.4,31.7-14.2   c15.9-2.8,31.1,0.6,44.8,7.9c13.6,7.3,25.6,18.6,35.2,31.7c0.5,0.6,0.9,1.3,1.4,1.9c9.4-13.1,18.9-27.4,28.9-42.6   c32.1-48.5,69.1-104.4,124.4-148.9c35.5-28.6,87.3-54.7,140.6-66.5c44.6-9.9,90.3-9.9,128.8,6.7c91.8,39.7,93.3,107.6,94.6,166.2   c0.5,19.3,0.9,37.6,4.5,53.4c7.6,32.9,27.9,49,50.9,67.2c21.9,17.4,46.3,36.6,64.3,74.1l-2.2,1.1c-17.8-36.9-41.9-56-63.6-73.2   c-23.3-18.5-43.9-34.8-51.7-68.6c-3.7-16.1-4.1-34.5-4.6-53.9c-1.3-57.9-2.9-125-93.2-164c-38-16.4-83.2-16.4-127.3-6.6   c-52.9,11.8-104.3,37.6-139.6,66c-55,44.2-91.9,100-123.9,148.3c-10.2,15.4-19.9,30.1-29.5,43.3c9.8,14.4,16.5,30.5,19.2,45.8   c3.6,20-1.5,40.7-6.6,61.3c-6,24.3-11.9,48.4-3.1,70.3c4,10.2,13.4,16.9,24.8,20.8c14.2,5,31.6,5.6,45.9,3.4L1012.9,526.5z    M929.4,322.5c-0.6-0.9-1.2-1.7-1.9-2.6c-9.4-12.7-21.1-23.8-34.4-31c-13.2-7.1-27.9-10.4-43.1-7.7c-10.1,1.8-20.4,6.2-30.8,13.8   c-13.5,9.9-20.6,25.8-21.4,41.5c-0.5,8.5,0.9,17.1,4.1,24.6c3.2,7.5,8.1,13.9,14.8,18.5c9.8,6.6,23.4,9,40.7,4.4   C884.6,376.7,906.8,353.5,929.4,322.5L929.4,322.5z"
   id="path22" />
	<path
   fill="#336699"
   d="M1011.6,519.1l14.7-2.3c0.8,4.1,1.5,8.2,2.3,12.3l-14.7,2.3C1013,527,1012.4,523.5,1011.6,519.1   L1011.6,519.1z"
   id="path24" />
	<path
   fill-rule="evenodd"
   clip-rule="evenodd"
   fill="#336699"
   d="M1001.4,307.4l381.4-71.1c7.5-1.4,14.7,3.6,16.1,11.1l46.5,249.4   c1.4,7.5-3.6,14.7-11.1,16.1L1052.9,584c-7.5,1.4-14.7-3.6-16.1-11.1l-46.5-249.4C988.9,316.1,993.9,308.8,1001.4,307.4   L1001.4,307.4z"
   id="path26" />
	<path
   fill-rule="evenodd"
   clip-rule="evenodd"
   fill="#336699"
   d="M991.2,305.2l400.2-74.6c2.3-0.5,2.5-2.8,3.4-4.9l37.1-86   c0.9-2.1-2.7-3.8-4.9-3.4l-502.8,93.7c-2.3,0.4-5,3.3-3.4,4.9l65.5,66.8C987.9,303.5,988.9,305.7,991.2,305.2L991.2,305.2z"
   id="path28" />
	<polygon
   fill-rule="evenodd"
   clip-rule="evenodd"
   fill="#FFFFFF"
   points="993.6,293.6 1385,220.6 1415.6,149.6 939.5,238.4  "
   id="polygon30" />
	<polygon
   fill-rule="evenodd"
   clip-rule="evenodd"
   fill="#8FBAE6"
   points="1003.2,336.4 1391.4,264 1419,412.5 1030.9,484.8  "
   id="polygon32" />
	<polygon
   fill-rule="evenodd"
   clip-rule="evenodd"
   fill="#8FBAE6"
   points="1169.8,473 1285.2,451.5 1297.7,518.9 1182.3,540.5  "
   id="polygon34" />
	<polygon
   fill-rule="evenodd"
   clip-rule="evenodd"
   fill="#8FBAE6"
   points="1218.3,553.1 1268.7,543.7 1267.7,538.6 1217.4,548  "
   id="polygon36" />
	<path
   fill-rule="evenodd"
   clip-rule="evenodd"
   fill="#8FBAE6"
   d="M1005.6,318.3c3-0.6,6,1.5,6.6,4.5c0.6,3-1.5,6-4.5,6.6   c-3,0.6-6-1.5-6.6-4.5C1000.5,321.8,1002.5,318.9,1005.6,318.3L1005.6,318.3z"
   id="path38" />
	<path
   fill-rule="evenodd"
   clip-rule="evenodd"
   fill="#8FBAE6"
   d="M1030.3,316.9c1.4-0.2,2.7,0.7,2.9,2c0.2,1.4-0.6,2.7-2,2.9   c-1.4,0.2-2.7-0.7-2.9-2C1028,318.4,1028.9,317.1,1030.3,316.9L1030.3,316.9z"
   id="path40" />
	<polygon
   fill-rule="evenodd"
   clip-rule="evenodd"
   fill="#1E466E"
   points="1044.5,307.2 1342.3,251.6 1340.2,240.2 1042.4,295.7     "
   id="polygon42" />
	<path
   fill-rule="evenodd"
   clip-rule="evenodd"
   fill="#8FBAE6"
   d="M1384.6,249.3c2.2-0.4,4.3,1.1,4.7,3.2c0.4,2.2-1,4.2-3.2,4.7   c-2.2,0.4-4.2-1-4.7-3.2C1381,251.8,1382.4,249.7,1384.6,249.3L1384.6,249.3z"
   id="path44" />
	<path
   fill-rule="evenodd"
   clip-rule="evenodd"
   fill="#1E466E"
   d="M1004.2,341.5l23.5-4.4l2.4,13l-23.5,4.4L1004.2,341.5z    M1362.8,397.6l24-4.5l1.6,8.8l-24,4.5L1362.8,397.6z M1338.8,413.1l24-4.5l1.6,8.8l-24,4.5L1338.8,413.1z M1364.8,408.2l24-4.5   l1.6,8.8l-24,4.5L1364.8,408.2z M1026.3,460.3l20.6-3.9l3.6,19.4l-20.6,3.9L1026.3,460.3z M1390.8,403.4l24-4.5l1.6,8.8l-24,4.5   L1390.8,403.4z M1304.6,408.4l23.5-4.4l3.6,19.4l-23.5,4.4L1304.6,408.4z M1276.6,413.6l23.5-4.4l3.6,19.4l-23.5,4.4L1276.6,413.6z    M1136.3,439.8l135.7-25.3l3.6,19.4l-135.7,25.3L1136.3,439.8z M1108.3,445l23.5-4.4l3.6,19.4l-23.5,4.4L1108.3,445z M1080.2,450.3   l23.5-4.4l3.6,19.4l-23.5,4.4L1080.2,450.3z M1052.8,455.4l21.8-4.1l3.6,19.4l-21.8,4.1L1052.8,455.4z M1356.6,372.8l53.2-9.9   l3.6,19.4l-53.2,9.9L1356.6,372.8z M1328,378.2l23.5-4.4l3.6,19.4l-23.5,4.4L1328,378.2z M1300,383.4l23.5-4.4l3.6,19.4l-23.5,4.4   L1300,383.4z M1271.9,388.6l23.5-4.4l3.6,19.4l-23.5,4.4L1271.9,388.6z M1243.8,393.9l23.5-4.4l3.6,19.4l-23.5,4.4L1243.8,393.9z    M1215.8,399.1l23.5-4.4l3.6,19.4l-23.5,4.4L1215.8,399.1z M1187.8,404.3l23.5-4.4l3.6,19.4l-23.5,4.4L1187.8,404.3z M1159.7,409.5   l23.5-4.4l3.6,19.4l-23.5,4.4L1159.7,409.5z M1131.6,414.8l23.5-4.4l3.6,19.4l-23.5,4.4L1131.6,414.8z M1103.6,420l23.5-4.4   l3.6,19.4l-23.5,4.4L1103.6,420z M1075.6,425.2l23.5-4.4l3.6,19.4l-23.5,4.4L1075.6,425.2z M1021.6,435.3l48.3-9l3.6,19.4l-48.3,9   L1021.6,435.3z M1370.9,344.8l34.3-6.4l3.6,19.4l-34.3,6.4L1370.9,344.8z M1341.9,350.2l23.5-4.4l3.6,19.4l-23.5,4.4L1341.9,350.2z    M1313.9,355.5l23.5-4.4l3.6,19.4l-23.5,4.4L1313.9,355.5z M1285.9,360.7l23.5-4.4l3.6,19.4l-23.5,4.4L1285.9,360.7z M1257.8,365.9   l23.5-4.4l3.6,19.4l-23.5,4.4L1257.8,365.9z M1229.7,371.2l23.5-4.4l3.6,19.4l-23.5,4.4L1229.7,371.2z M1201.7,376.4l23.5-4.4   l3.6,19.4l-23.5,4.4L1201.7,376.4z M1173.7,381.6l23.5-4.4l3.6,19.4l-23.5,4.4L1173.7,381.6z M1145.6,386.9l23.5-4.4l3.6,19.4   l-23.5,4.4L1145.6,386.9z M1117.5,392.1l23.5-4.4l3.6,19.4l-23.5,4.4L1117.5,392.1z M1089.5,397.3l23.5-4.4l3.6,19.4l-23.5,4.4   L1089.5,397.3z M1061.5,402.5l23.5-4.4l3.6,19.4l-23.5,4.4L1061.5,402.5z M1017.1,410.8l38.6-7.2l3.6,19.4l-38.6,7.2L1017.1,410.8z    M1383.1,316.3l17.4-3.2l3.6,19.4l-17.4,3.3L1383.1,316.3z M1355.4,321.5l23.5-4.4l3.6,19.4l-23.5,4.4L1355.4,321.5z M1327.4,326.7   l23.5-4.4l3.6,19.4l-23.5,4.4L1327.4,326.7z M1299.4,331.9l23.5-4.4l3.6,19.4l-23.5,4.4L1299.4,331.9z M1271.3,337.2l23.5-4.4   l3.6,19.4l-23.5,4.4L1271.3,337.2z M1243.2,342.4l23.5-4.4l3.6,19.4l-23.5,4.4L1243.2,342.4z M1215.2,347.6l23.5-4.4l3.6,19.4   l-23.5,4.4L1215.2,347.6z M1187.2,352.9l23.5-4.4l3.6,19.4l-23.5,4.4L1187.2,352.9z M1159.1,358.1l23.5-4.4l3.6,19.4l-23.5,4.4   L1159.1,358.1z M1131,363.3l23.5-4.4l3.6,19.4l-23.5,4.4L1131,363.3z M1103,368.5l23.5-4.4l3.6,19.4l-23.5,4.4L1103,368.5z    M1075,373.8l23.5-4.4l3.6,19.4l-23.5,4.4L1075,373.8z M1046.9,379l23.5-4.4l3.6,19.4l-23.5,4.4L1046.9,379z M1012.4,385.5   l29.6-5.5l3.6,19.4l-29.6,5.5L1012.4,385.5z M1372.2,291.7l23.5-4.4l3.6,19.4l-23.5,4.4L1372.2,291.7z M1344.2,296.9l23.5-4.4   l3.6,19.4l-23.5,4.4L1344.2,296.9z M1316.1,302.2l23.5-4.4l3.6,19.4l-23.5,4.4L1316.1,302.2z M1288.1,307.4l23.5-4.4l3.6,19.4   l-23.5,4.4L1288.1,307.4z M1260,312.6l23.5-4.4l3.6,19.4l-23.5,4.4L1260,312.6z M1232,317.9l23.5-4.4l3.6,19.4l-23.5,4.4   L1232,317.9z M1203.9,323.1l23.5-4.4l3.6,19.4l-23.5,4.4L1203.9,323.1z M1175.9,328.3l23.5-4.4l3.6,19.4l-23.5,4.4L1175.9,328.3z    M1147.8,333.6l23.5-4.4l3.6,19.4l-23.5,4.4L1147.8,333.6z M1119.8,338.8l23.5-4.4l3.6,19.4l-23.5,4.4L1119.8,338.8z M1091.7,344   l23.5-4.4l3.6,19.4l-23.5,4.4L1091.7,344z M1063.7,349.2l23.5-4.4l3.6,19.4l-23.5,4.4L1063.7,349.2z M1035.6,354.5l23.5-4.4   l3.6,19.4l-23.5,4.4L1035.6,354.5z M1007.6,359.7l23.5-4.4l3.6,19.4l-23.5,4.4L1007.6,359.7z M1368.8,273.5l23.5-4.4l2.4,13   l-23.5,4.4L1368.8,273.5z M1340.8,278.7l23.5-4.4l2.4,13l-23.5,4.4L1340.8,278.7z M1312.7,284l23.5-4.4l2.4,13l-23.5,4.4   L1312.7,284z M1284.7,289.2l23.5-4.4l2.4,13l-23.5,4.4L1284.7,289.2z M1256.6,294.4l23.5-4.4l2.4,13l-23.5,4.4L1256.6,294.4z    M1228.6,299.6l23.5-4.4l2.4,13l-23.5,4.4L1228.6,299.6z M1200.5,304.9l23.5-4.4l2.4,13l-23.5,4.4L1200.5,304.9z M1172.5,310.1   l23.5-4.4l2.4,13l-23.5,4.4L1172.5,310.1z M1144.4,315.3l23.5-4.4l2.4,13l-23.5,4.4L1144.4,315.3z M1116.4,320.6l23.5-4.4l2.4,13   l-23.5,4.4L1116.4,320.6z M1088.3,325.8l23.5-4.4l2.4,13l-23.5,4.4L1088.3,325.8z M1060.3,331l23.5-4.4l2.4,13l-23.5,4.4   L1060.3,331z M1032.2,336.3l23.5-4.4l2.4,13l-23.5,4.4L1032.2,336.3z"
   id="path46" />
	<polygon
   fill-rule="evenodd"
   clip-rule="evenodd"
   fill="#1E466E"
   points="1591.3,474.1 1592.6,473.4 1601.7,489.7 1600.4,490.5     "
   id="polygon48" />
	<polygon
   fill-rule="evenodd"
   clip-rule="evenodd"
   fill="#FF9933"
   points="970.7,270.3 1398.3,189.7 1415.6,149.6 939.5,238.4  "
   id="polygon50" />
	<path
   fill-rule="evenodd"
   clip-rule="evenodd"
   fill="#FFFFFF"
   d="M1213.2,217c0.1,0,0.2,0,0.2,0c0.1-0.1,0.1-0.1,0.1-0.2   C1213.4,216.7,1213.1,216.9,1213.2,217L1213.2,217z M1185.2,217.5C1185.3,217.6,1185.2,217.5,1185.2,217.5L1185.2,217.5   c0.1-0.1,0-0.1,0-0.2l0,0c0,0,0-0.1,0-0.1c-0.1,0-0.2,0-0.2,0C1185,217.4,1185.1,217.5,1185.2,217.5L1185.2,217.5z M1199.4,207.5   c0.1,0.2,0.5,0,0.5-0.1c0.1-0.3-0.1-0.4-0.4-0.3C1199.4,207.1,1199.3,207.4,1199.4,207.5L1199.4,207.5z M1212.9,220.8L1212.9,220.8   c0.5,0,0.4-0.3,0.4-0.3C1213.1,220.5,1212.9,220.6,1212.9,220.8L1212.9,220.8z M1144.6,227.1c0,0,0.8-0.1,0.3-0.4   C1144.8,226.6,1144.3,227,1144.6,227.1L1144.6,227.1z M1215.6,217.2c0.1,0,0.2,0,0.3-0.1c0.1,0,0.2-0.4,0.1-0.4s-0.2,0-0.3,0.1   C1215.6,216.9,1215.6,217.2,1215.6,217.2L1215.6,217.2z M1170.8,224.7c0,0-0.1,0-0.1,0c0,0,0,0,0,0h0c0,0.1,0,0.1,0.1,0.2   c0,0,0,0,0,0c0,0,0,0,0,0c0,0,0,0,0.1,0v0c0.1,0,0.2,0,0.3,0c0,0,0-0.1,0-0.1h0c0-0.1,0-0.1-0.1-0.2h0c0,0,0,0,0,0   C1171,224.6,1170.9,224.6,1170.8,224.7C1170.8,224.7,1170.8,224.7,1170.8,224.7L1170.8,224.7z M1149.8,208.4   c0.1,0.1,1.5,0.1,0.9-0.4C1150.6,207.9,1149.2,207.8,1149.8,208.4L1149.8,208.4z M1209.6,204.5c0,0.5,0.7,0.2,0.8-0.2   c0.1-0.4,0.1-0.6-0.1-0.6C1209.8,203.7,1209.6,204.1,1209.6,204.5L1209.6,204.5z M1208.3,221.6c0,0.1,0.2,0.1,0.5,0.1l0.3-0.2   c0.1-0.3-0.1-0.4-0.5-0.3C1208.4,221.3,1208.3,221.5,1208.3,221.6L1208.3,221.6z M1189.9,209.2c-0.1,0.6,0.3,0.7,0.9,0.6   c0.5-0.1,0.2-1.1-0.1-1.1C1190.3,208.7,1190,209.1,1189.9,209.2L1189.9,209.2z M1169.2,224.6   C1169.2,224.6,1169.2,224.6,1169.2,224.6L1169.2,224.6L1169.2,224.6C1169.1,224.7,1169.1,224.7,1169.2,224.6   c-0.1,0.1-0.1,0.1-0.1,0.1c0,0,0,0.1,0,0.1c0,0,0,0-0.1,0c0,0,0.1,0,0,0c0,0,0,0,0,0c0,0.1,0.1,0.2,0.2,0.3h0c0,0,0,0,0,0l0,0   c0,0,0,0,0,0h0c0,0,0,0,0,0c0,0,0.1,0,0.1,0c0,0,0,0,0,0c0.1,0,0.1,0,0.2,0c0,0,0,0,0,0c0,0,0.1,0,0.1,0c0,0,0,0,0,0c0,0,0,0,0,0   c0,0,0,0,0,0c0,0,0,0,0,0c0,0-0.1-0.1-0.1-0.1c0,0,0,0,0,0c0,0,0,0,0-0.1h0.1c0-0.1-0.1-0.1-0.1-0.2c0,0,0,0,0,0c0,0,0-0.1,0-0.1   c0,0,0,0-0.1,0c0,0,0,0,0,0c0,0,0,0,0,0c0,0,0,0,0,0l0,0c0,0,0,0,0,0C1169.5,224.5,1169.3,224.5,1169.2,224.6L1169.2,224.6   L1169.2,224.6z M1215.4,215.8c0.1,0.2,3.7-3,4-4.7C1218.6,212.7,1215.3,215.6,1215.4,215.8L1215.4,215.8z M1216.4,209.1   C1216.4,209.1,1216.4,209.1,1216.4,209.1c0-0.8,3.8-5.1,4.5-5c0,0,0,0,0,0.1C1218.8,205.9,1218,206.7,1216.4,209.1L1216.4,209.1z    M1216.9,205c0-0.4-0.1-1.9-0.7-1.8c-1.5,0.2-3.3,1.4-3.9,2.1c0-0.3-0.3-0.6-0.8-0.5c-0.3,0.1-2.8,4.3-3.5,6.2   c0-0.5,2.2-4.4,2.4-5.6c0-0.1-0.4-0.1-0.5,0c-0.7,1.1-2.3,4.4-3.3,7.4c-0.9,2.7-1.3,5.1,0,5.5c0.1,0,0.2,0,0.2,0   c0-0.2,0.6-2.7,1.9-5.5c1.4-3,3.7-6.4,6.2-6.8c0.3,0,0.3,0.5,0.2,0.7c0,0-0.3,0-0.3,0c-0.1-1.1-4.1,2.4-3.9,2.9   c0,0,0.3-0.1,0.3-0.1c0.1-0.4,2.2-1.6,2.3-1.6c0,0,0,0.1,0,0.1c-0.2,0.3-0.5,1.1-0.4,1.1c0.7-0.1,0.8-0.5,2-1.7   c-0.9,1.2-2.4,3.9-3,5.9c-0.5,1.9-0.2,3.2,2.2,2.3c-0.1,0.1,0.1,0.2,0.2,0.2s0.2,0,0.3,0c0.2-0.1,0.4-0.4,0.3-0.6   c0.6-0.1,3.4-3,3.3-3.2c0-0.2-2,1.9-3.4,2.1c-0.3,0.1-0.6-0.6-0.1-1.9c0.5-1.3,6.4-8.3,6.4-7.6c0,0.2-1.6,2-1.7,2   c-1.1,1-0.6,1.8-0.2,1.8c0.1,0,0.2,0,0.4-0.1c1.2-0.3,2.9-3.3,3.4-4.4c0.6-1.5-0.4-2-1.5-1.9c-0.2,0-0.4,0-0.6,0.1   C1219.5,202.6,1218.3,203.5,1216.9,205L1216.9,205z M1227.8,205.7c0.2-0.3,0.5-0.4,0.5-0.3c-0.1,0.2-0.6,1.5-0.8,1.8   C1227.3,207.5,1227.6,205.9,1227.8,205.7L1227.8,205.7z M1217.8,217c0,0,0.1,0,0.1,0c0.3,0,3.9-5.9,3.7-5.5c-0.1,0.2-1.4,2-1.1,2.1   c0.1,0,0.2-0.1,0.2-0.1c0.2-0.1,5.9-6.9,5.6-6.2c-1,3.5-3.4,6.6-5.3,8.7c-1.8,2-3.4,3.3-3.4,3.3c3-1.5,5.4-3.6,7.1-5.6   c1.8-2,3-3.9,3.2-4.2c0,0,0.1,0,0.1,0c-0.4,1.2-2.1,3.2-3.6,4.8c-1.5,1.5-2.8,2.8-2.8,2.8c2.3-1.6,5.3-4.9,7.6-8.2   c2.5-3.6,4-7,2-6.8c-0.2,0-0.3-0.1-0.6,0c-0.5,0.1-2.5,2-5.6,5c0,0-0.1,0-0.1,0c0.3,0,2-3.3,3.7-5.9c1.9-2.8,4-5.8,4.4-6.8   c0,0,0,0,0,0c-0.1,0-0.2,0-0.3,0c0,0-0.1,0.1-0.2,0.1c-1.6,1.8-3.5,5.2-5.2,7.9c-1.6,2.6-3,4.7-3.8,6.7c0,0-0.1,0-0.1,0   c1-3,3.9-6.8,6.4-10.6c2.8-4.2,5.1-8.2,3.5-7.7c-2,0.6-7,9-10.6,15.7C1219.7,212,1217.5,217,1217.8,217L1217.8,217z M1168.8,226.8   c-2.3,0.4-14.9,3.2-15.8,3.7c-0.2,0.1-0.3,0.4,0.1,0.5c0.1,0,0.3,0.2,0.3,0.2c0,0.1-0.8,0-0.3,0.4c0.3,0.2,0.6,0.2,0.7,0.2   c0.5-0.1,3.3-0.8,4.3-0.9v0c5-0.7,7.7-2,12.3-2.7c0.8-0.1-8.6,2.1-9.1,2.3c-1,0.3-1.2,0.6-1.2,0.7c0.1,0.1,0.1,0.1,0.2,0.2   c0.2,0.2,1.1,0.2,1.9,0c3.3-0.8,3.6-1.3,9.6-2.3c3.5-0.6,8.5-2,12.6-2.7c3.1-0.5,8-1.4,12.3-2.3c4.3-0.8,7.8-1.7,8.5-2   c-5.2,0.5-13.1,1.8-18.1,2.7v0c5-0.8,9.6-1.8,14.1-2.7c4.5-0.9,9.2-1.9,13.9-2.8c-0.1-0.1-5.2,0.6-11.6,1.5   c-6.5,0.9-14.2,2.1-19.4,2.9C1179.1,224.6,1173.8,226,1168.8,226.8L1168.8,226.8z M1180.8,223.5c0.1,0,1.1-0.3,1.3-0.3   C1182,223.5,1180.6,223.6,1180.8,223.5L1180.8,223.5z M1181,223.4c-0.1,0-0.3,0.1-0.4,0c-0.4-0.4,0-1.8,0.1-1.6   C1180.4,222.8,1180.4,223.4,1181,223.4L1181,223.4z M1195.4,215.8c0.1,0.1,0.3,0.5,0.7,0.5c0.9-0.1,1.4-1.3,1.4-1.2   c0,0.6,0,1.1,0,1.6c-1.2,0.2-3,2.5-3.4,2.6c-1.4,0.3-2.3-2-2-3.2c0.7-0.6,2.4,0.7,3.2,0.4C1195.5,216.3,1195.1,215.9,1195.4,215.8   L1195.4,215.8z M1183.3,222.5c2.6-1.1,4.3-4.3,5.4-6.3C1188.6,217.8,1185.4,221.9,1183.3,222.5L1183.3,222.5z M1197.1,213.7   c0-0.1,0.7,0.6,0.5,1.1C1197.5,214.9,1197.1,213.9,1197.1,213.7L1197.1,213.7z M1192.9,219.8c-2.1-0.1-2.6-4.2-1-5.8   C1191.5,214.7,1190.6,219.1,1192.9,219.8L1192.9,219.8z M1199.9,215.5c-0.2-0.5,0.1-3.8,1.8-5.5   C1200.6,212.1,1200,214.9,1199.9,215.5L1199.9,215.5z M1194.9,214.7c-1,0-2.5,0.6-2.7,0.7c-0.1-1.1,0.8-3.3,2.3-4.5   C1194.4,212.5,1194.9,214.4,1194.9,214.7L1194.9,214.7z M1206.2,208.9c-0.1-0.4,0.3-0.6,0.3-0.6   C1206.5,208.3,1206.2,209.1,1206.2,208.9L1206.2,208.9z M1181.6,208.5c0.1,0.9,1.5,3.3,2.3,3.8   C1183.3,212.1,1181.5,210,1181.6,208.5L1181.6,208.5z M1180.8,209.1c-1.2-2-0.9-4.8,0.3-5.8   C1180.1,204.8,1180.1,207.4,1180.8,209.1L1180.8,209.1z M1200.5,218.8c0.6-0.4,3-3.9,2.1-3.9c-0.6,0-1.3,1.5-1.7,1.7   c-0.1,0.1-0.2,0-0.2,0c-0.4-0.5-0.3-1.9,0.2-3.4c0.5-1.6,1.4-3.4,2.5-4.5c0,0,0.5-0.2,0.5,0.2c0.1,3.5-1.5,5.4-1.5,5.5   c0.1,0.2,1-1.1,1-1c-0.1,2.5-1.7,4.9-2.6,5.5c0.4,0.1,1.5-0.8,1.9-1.4c0,0.2,0.6,1.7,1.4,1.5c-0.2-0.7,0-2.7,0.3-3.6   c-0.2,1.8-0.6,4,0.9,4c-0.9-0.9-0.1-3.5,0.9-5.9c1.1-2.6,2.3-5.1,1.5-4.8c-0.2,0.1-0.9,1.4-0.9,1.2c0.5-0.8,1-2.1,1.2-3   c0-0.1-1.6-0.1-2.9,1.8c0.1-0.6,0-1.8-2.2-1.5c-2.7,0.7-4.5,5-4.9,6.1c-0.3-0.7-1.4-3.8-1.4-4.7c0,0-0.3-0.5-0.4-0.4   c-0.3,0.4,0.4,2.9,0.3,3.5c0,0.3-0.6-2.4-0.6-3.2c-0.5-0.1-0.6,0-0.7,0.4c-0.3-0.2-0.7-0.1-1.1,0.1c-4,2.2-4.6,5.4-4.7,6.6   c0-0.6-0.5-1.4-2-2.1c-2.3-0.9-4-3.2-4.8-5.4c-0.8-2.5-0.5-4.9,1.6-5.3c1-0.2,1.5,1.8,1.9,4c0.3,2,0.4,4.2,0.6,5   c0,0.1,0.3,0.5,0.5,0.5c3.3-0.3,2.8-3.6,3.5-7.5c-0.5-0.1-1.7,6.6-2,6.3c-0.2-0.3,0.2-2.3,0.9-4.6c0.8-2.5,1.9-5.4,2.7-6.6   c-2.7,0.9-4.2,5.3-4.2,5.2c-0.3-2-1.6-5.7-4.4-5.3c-5.1,0.8-7.7,5.5-5.5,9.8c2.1,4,6.2,4.9,6.9,5.1c0.6,0.2,3.5,1.1,3.1,1.6   c0,0.1-0.5,0.1-0.5,0.1c-0.9,3.3-4.7,5.6-5,4.3c-0.7-2.1,2.7-5.4,2.2-5.6c-0.7-0.2-2.9,2.5-3,2.5c-0.1,0,0.9-1.1,0.7-1.2   c-0.5-0.2-4.6,5-3.6,5c0.2-0.3,0.8-1.2,1.2-1.6c-0.5,0.8-2.3,4.8,1,4.3c3.8-0.6,6.9-2.5,8.3-5.9c0.7,2.5,3,3.9,5.4,3.2   c0.7-0.2,2.9-2.5,3-2.5h0c0,0,0.5,1.3,1.8,1.1C1199.8,220,1200.3,218.9,1200.5,218.8L1200.5,218.8z M1143.4,227.2   c-0.3-0.2-1.4-2-0.9-1.9C1142.5,225.3,1143.5,227.3,1143.4,227.2L1143.4,227.2z M1153.4,227.5c0.8-1.3-0.8-4.4-0.7-4.4   C1153.9,224.2,1154.2,226.5,1153.4,227.5L1153.4,227.5z M1156.3,222.4c0.6,0.4,1.3,0.9,2.2,1.2   C1157.9,223.5,1156.8,222.9,1156.3,222.4L1156.3,222.4z M1155.2,221.7c-0.5-0.3-1.3-1-1.2-1.5   C1154.1,220.5,1154.5,221.1,1155.2,221.7L1155.2,221.7z M1166.7,223.2c-0.8-1.2-1.1-3-1-4.6c0-1.6,0.3-2.8,0.5-2.5   c0.9,1.6,1,3.5,0.9,4.9C1167,222.4,1166.8,223.3,1166.7,223.2L1166.7,223.2z M1160.5,221c-1.6-0.7-4-2.9-4.4-5.7c0,0,0.1,0,0.1,0   c0,0,0,0,0,0.1c0,0,0,0,0.1,0c0,0,0,0,0,0c0,0,0,0,0.1,0C1160.4,217.5,1160.7,221.2,1160.5,221L1160.5,221z M1160.5,221.8   c0.1,0-0.1,1.5-0.9,1.5c-2.2,0-6.7-4-6-6C1154.9,221.4,1157.8,221.9,1160.5,221.8L1160.5,221.8z M1155.5,215.8c0,0,0-0.2,0-0.1   c0.5,1.9,1.9,5,4.7,6c0,0.1-4-0.7-4.9-5.7c0,0,0,0,0,0c0,0,0-0.3,0-0.3c0,0,0.1-0.1,0.1-0.1c0,0-0.1-0.1-0.1-0.1s0.1,0,0.1-0.1   c0,0-0.1-0.1-0.1-0.1c0,0,0.1,0.3,0.1,0.3c0.1,0,0.1,0.4,0.1,0.4h-0.1C1155.5,216,1155.5,215.8,1155.5,215.8L1155.5,215.8z    M1168.3,213c0.3,0.3,1.2,1.6,1.7,3.3c0.5,1.5,0.7,3.3,0,4.8c0.2-1.2,0.1-2.6-0.2-4C1169.5,215.5,1168.9,214.1,1168.3,213   L1168.3,213z M1132.6,215.7c-0.1,0,0.1-0.4,0.2-0.3C1133,215.4,1132.8,215.8,1132.6,215.7L1132.6,215.7z M1160.4,216.3   c-0.9-0.8-2.3-2.6-4.8-2.5c-1.2,0.1-1.9,0.7-2.2,1.4c-0.2-0.1-0.5-0.1-0.5-0.1c-1.8,0.1-2.9,2.6-0.9,5.1c-1.4-1.2-6.1-5.8-10.1-5.8   c-0.8,0,12.7-4.8,11.1-5.6c-3-0.9-13,3.5-14.8,3.5c-1,0,9.3-3.2,10.6-4c0.6-0.4-20.9,4.8-17.5,7.5c0.3,0.2,0.4,0.2,1.1,0.1   c0.5,0.9,2,1.4,2.6,1.4c0.1,0,0.2,0,0.3,0c1.3,0.1,2.2-0.6,2.7-0.9c0,0,1.6-1.2,1.8-1.1c0.4,0.3-0.7,0.4,0.2,1.1   c1.7,1.2,4.6,0.9,8.8,5.4c1.5,1.8,2.2,3.6,2,5c-0.2,1.3-1.2,2.3-3.2,2.6c-1.5,0.2-2.7-1.2-3.6-2.7c-0.9-1.6-1.4-3.3-1-3   c0.6,0.5,1.2,2.3,1.7,2.7c0,0,0.8-1.7-1-3.3c-0.2-0.2-1.1-0.5-1.5-0.4c-3,0.4-2.6,2.7-0.7,4.7c1.7,1.8,4.6,3.4,7.4,3   c2.3-0.3,4.1-1.2,5-2.4c1-1.3,1.3-2.9,0.5-4.6c3,1.9,4.3,2.1,6.8,1.5c2.2-0.8,1.8-2.9,1.1-4.8c0.9,1.4,3.4,4.4,3.7,3.9   c0.1-0.1-0.3-0.7-0.3-0.8c-0.1-0.3,0.7,0.6,0.7,0.8c0,0-1.2,1.5-0.8,1.5c3.5-0.4,5.1-3.2,5.4-6.3c0.2-3.5-1.3-7.4-4.1-7.9   c-2.9-0.1-3.7,1.5-3.6,3.3c-0.1,0.2-1.6-5.6-2.4-6.9c0,0,0,0-0.1,0c0,0,0,0,0-0.1c0,0,0,0-0.1,0c0,0,0-0.1,0-0.1c0,0,0,0-0.1,0   c0,0,0-0.1,0-0.1c-0.1,0-0.2,0-0.3,0.1c0,0,0.1,0,0,0c-0.2,0.4,0.8,3.4,1.6,6.1c0.8,2.4,1.5,4.5,1.3,4.2c-0.7-0.8-1.3-3.5-2.1-6.3   c-0.9-3.1-2.1-6.1-3.6-6c-1.2,0.1-0.7,2.7,0.1,5.3C1158.7,213.1,1159.8,215.5,1160.4,216.3L1160.4,216.3z"
   id="path52" />
	<polygon
   fill-rule="evenodd"
   clip-rule="evenodd"
   fill="#666666"
   points="992.3,283.9 1116.9,260.5 1114.8,250.7 983.7,275.1  "
   id="polygon54" />
</g>
<g
   id="g98">
	<path
   fill-rule="evenodd"
   clip-rule="evenodd"
   fill="#D9D997"
   d="M663.4,440c45.9,14.9,71,64.2,56.2,110.1   c-14.9,45.9-64.1,71.1-110,56.2c-45.9-14.9-71.1-64.2-56.2-110.1C568.2,450.3,617.5,425.1,663.4,440L663.4,440z"
   id="path58" />
	<path
   fill-rule="evenodd"
   clip-rule="evenodd"
   fill="#FFFFFF"
   d="M656.4,433c45.9,14.9,71,64.2,56.2,110.1   c-14.9,45.9-64.1,71.1-110,56.2c-45.9-14.9-71.1-64.2-56.2-110.1S610.5,418.1,656.4,433L656.4,433z"
   id="path60" />
	<path
   fill-rule="evenodd"
   clip-rule="evenodd"
   fill="#CCCCCC"
   d="M716.6,509.4c0.9,11.1-0.4,22.5-4,33.7   c-8.5,26.2-28.2,45.7-52.1,54.8l-64.7-46l55.5-79.6L716.6,509.4z"
   id="path62" />
	<path
   fill-rule="evenodd"
   clip-rule="evenodd"
   fill="#FFCCCC"
   d="M651.5,448.2c37.5,12.1,58,52.4,45.9,89.9s-52.4,58.1-89.9,45.9   c-37.5-12.1-58-52.4-45.9-89.9C573.7,456.6,613.9,436,651.5,448.2L651.5,448.2z"
   id="path64" />
	<path
   fill-rule="evenodd"
   clip-rule="evenodd"
   fill="#D69C9C"
   d="M698.8,499.3c3,12.4,2.8,25.8-1.5,38.9   c-8.2,25.3-29.2,42.9-53.5,47.9l-48.1-34.2l55.5-79.6L698.8,499.3z"
   id="path66" />
	<path
   fill-rule="evenodd"
   clip-rule="evenodd"
   fill="#FFFFFF"
   d="M644.6,469.5c23.4,7.6,37.2,31.1,33.3,54.7l20.6,6.7   c3.8,1.2,6.6,5.4,4.6,9.2v0c-1,3.9-5.3,6-9.2,4.7l-20.6-6.7c-10.7,21.4-35.6,32.3-59,24.7c-25.8-8.4-39.9-36-31.5-61.8   C591.1,475.3,618.8,461.1,644.6,469.5L644.6,469.5z"
   id="path68" />
	<path
   fill-rule="evenodd"
   clip-rule="evenodd"
   fill="#402E28"
   d="M642.8,475c22.7,7.4,35.2,31.8,27.8,54.5   c-7.3,22.7-31.7,35.2-54.4,27.8c-22.7-7.4-35.1-31.8-27.8-54.5C595.7,480.1,620.1,467.7,642.8,475L642.8,475z"
   id="path70" />
	<path
   fill-rule="evenodd"
   clip-rule="evenodd"
   fill="#5E433A"
   d="M667.2,495.1c5.6,10.1,7.2,22.5,3.4,34.4   c-7.3,22.7-31.7,35.2-54.4,27.8c-8-2.6-14.8-7.4-19.9-13.5c-5.7-10.1-7.2-22.5-3.4-34.4c7.4-22.7,31.7-35.2,54.5-27.8   C655.4,484.3,662.2,489,667.2,495.1L667.2,495.1z"
   id="path72" />
	<path
   fill-rule="evenodd"
   clip-rule="evenodd"
   fill="#402E28"
   d="M633.7,498.3c0.9,1.1-2.8,2.6-5.9,4.4c-3.1,1.8-5.7,4-7.1,3.5   c-1-0.4-4.9-2.1-7.7-0.4c-1.8,1.2-4.7,4.7,1.1,9.1c0.5,0.4,0.9,1.5,0.4,1.6c-3.7,1.1-4.5,6-0.4,8c0.7,0.4,3.7,1.5,7,1.6   c2.1,0.1,2.6,2.2,1.6,3.5c-3.9,5.1,0.8,7.1,2.7,7.1c2.8,0,2.3,4,5.9,5.3c5,1.8,10.5-2.7,9.3-8.3c-0.3-1.6,1.6-2,2.9-1   c2.7,2,8.3-0.5,6-4.7c-1.4-2.5-2.5,0.9-7.5-6.1c-3-4.3-7.6-0.4-8.6-1.3c-2.8-2.6,3.8-2.5,6.3-6.4c1.5-2.4,9.8,0.1,10-4.2   c0.3-4.9-5.4-2.9-2.8-8.2c2.2-4.4-2.7-1.8-6-7.6C638.3,489.6,630.9,494.8,633.7,498.3L633.7,498.3z"
   id="path74" />
	<path
   fill-rule="evenodd"
   clip-rule="evenodd"
   fill="#FFFFCC"
   d="M631.5,506c2.8,0,5.1,2.3,5.1,5.2c0,2.8-2.3,5.1-5.1,5.1   c-2.9,0-5.2-2.3-5.2-5.1C626.3,508.3,628.6,506,631.5,506L631.5,506z M631.8,507.3c2.3,0,4.2,1.9,4.2,4.2c0,2.3-1.9,4.2-4.2,4.2   c-2.3,0-4.2-1.9-4.2-4.2c0-0.4,0.1-0.8,0.2-1.2c0.3,0.7,1,1.2,1.9,1.2c1.2,0,2.1-0.9,2.1-2.1c0-0.8-0.5-1.6-1.2-1.9   C630.9,507.4,631.4,507.3,631.8,507.3L631.8,507.3z"
   id="path76" />
	<path
   fill-rule="evenodd"
   clip-rule="evenodd"
   fill="#FFFFCC"
   d="M621.2,516.8c1.7,0,3,1.4,3,3s-1.4,3-3,3c-1.7,0-3-1.4-3-3   S619.5,516.8,621.2,516.8L621.2,516.8z M621.3,517.5c1.4,0,2.4,1.1,2.4,2.5c0,1.3-1.1,2.5-2.4,2.5c-1.4,0-2.4-1.1-2.4-2.5   c0-0.3,0-0.5,0.1-0.7c0.2,0.4,0.6,0.7,1.1,0.7c0.7,0,1.2-0.6,1.2-1.3c0-0.5-0.3-0.9-0.7-1.1C620.8,517.6,621.1,517.5,621.3,517.5   L621.3,517.5z"
   id="path78" />
	<path
   fill-rule="evenodd"
   clip-rule="evenodd"
   fill="#FFFFCC"
   d="M638.2,523.2c1.2,0,2.1,0.9,2.1,2.1s-0.9,2.1-2.1,2.1   c-1.2,0-2.1-0.9-2.1-2.1S637,523.2,638.2,523.2L638.2,523.2z M638.4,523.8c0.9,0,1.7,0.8,1.7,1.7c0,1-0.8,1.8-1.7,1.8   c-1,0-1.7-0.8-1.7-1.8c0-0.2,0-0.4,0.1-0.5c0.1,0.3,0.5,0.5,0.8,0.5c0.5,0,0.9-0.4,0.9-0.8c0-0.4-0.2-0.7-0.5-0.8   C638,523.8,638.2,523.8,638.4,523.8L638.4,523.8z"
   id="path80" />
	<path
   fill-rule="evenodd"
   clip-rule="evenodd"
   fill="#FFFFCC"
   d="M625.9,530.2c1.2,0,2.1,1,2.1,2.1c0,1.2-0.9,2.2-2.1,2.2   c-1.2,0-2.1-1-2.1-2.2C623.7,531.2,624.7,530.2,625.9,530.2L625.9,530.2z M626,530.8c0.9,0,1.7,0.8,1.7,1.8c0,0.9-0.8,1.7-1.7,1.7   c-1,0-1.7-0.8-1.7-1.7c0-0.2,0-0.4,0.1-0.5c0.1,0.3,0.5,0.5,0.8,0.5c0.5,0,0.9-0.4,0.9-0.9c0-0.4-0.2-0.7-0.5-0.8   C625.7,530.8,625.8,530.8,626,530.8L626,530.8z"
   id="path82" />
	<path
   fill-rule="evenodd"
   clip-rule="evenodd"
   fill="#FFFFCC"
   d="M633.8,531c2,0,3.6,1.6,3.6,3.6c0,2-1.6,3.6-3.6,3.6   c-2,0-3.6-1.6-3.6-3.6C630.2,532.6,631.8,531,633.8,531L633.8,531z M634,531.9c1.6,0,2.9,1.3,2.9,3c0,1.6-1.3,2.9-2.9,2.9   c-1.6,0-2.9-1.3-2.9-2.9c0-0.3,0-0.6,0.1-0.9c0.2,0.5,0.7,0.9,1.3,0.9c0.8,0,1.5-0.7,1.5-1.5c0-0.6-0.3-1.1-0.9-1.4   C633.4,531.9,633.7,531.9,634,531.9L634,531.9z"
   id="path84" />
	<path
   fill-rule="evenodd"
   clip-rule="evenodd"
   fill="#FFFFCC"
   d="M615.6,507.3c1.2,0,2.1,0.9,2.1,2.1c0,1.2-0.9,2.1-2.1,2.1   c-1.2,0-2.1-0.9-2.1-2.1C613.4,508.3,614.4,507.3,615.6,507.3L615.6,507.3z M615.7,507.9c0.9,0,1.7,0.8,1.7,1.7s-0.8,1.8-1.7,1.8   c-1,0-1.7-0.8-1.7-1.8c0-0.2,0-0.4,0.1-0.5c0.1,0.3,0.5,0.5,0.8,0.5c0.5,0,0.9-0.4,0.9-0.9c0-0.4-0.2-0.6-0.5-0.8   C615.3,507.9,615.5,507.9,615.7,507.9L615.7,507.9z"
   id="path86" />
	<path
   fill-rule="evenodd"
   clip-rule="evenodd"
   fill="#FFFFCC"
   d="M640.9,500.4c1.2,0,2.1,1,2.1,2.1c0,1.2-0.9,2.2-2.1,2.2   c-1.2,0-2.1-1-2.1-2.2C638.7,501.3,639.7,500.4,640.9,500.4L640.9,500.4z M641,500.9c0.9,0,1.7,0.8,1.7,1.8c0,0.9-0.8,1.7-1.7,1.7   c-1,0-1.7-0.8-1.7-1.7c0-0.2,0-0.4,0.1-0.5c0.1,0.3,0.5,0.5,0.8,0.5c0.5,0,0.9-0.4,0.9-0.9c0-0.4-0.2-0.7-0.5-0.8   C640.6,501,640.8,500.9,641,500.9L641,500.9z"
   id="path88" />
	<path
   fill-rule="evenodd"
   clip-rule="evenodd"
   fill="#FFFFCC"
   d="M645.9,507.7c0.6,0,1,0.5,1,1.1s-0.5,1.1-1,1.1   c-0.6,0-1.1-0.5-1.1-1.1S645.3,507.7,645.9,507.7L645.9,507.7z M646,508c0.5,0,0.8,0.4,0.8,0.9s-0.4,0.9-0.8,0.9   c-0.5,0-0.9-0.4-0.9-0.9c0-0.1,0-0.2,0-0.2c0.1,0.1,0.2,0.2,0.4,0.2c0.2,0,0.5-0.2,0.5-0.4c0-0.2-0.1-0.4-0.3-0.4   C645.8,508,645.9,508,646,508L646,508z"
   id="path90" />
	<path
   fill-rule="evenodd"
   clip-rule="evenodd"
   fill="#FFFFCC"
   d="M614.7,519.5c0.6,0,1.1,0.5,1.1,1.1c0,0.6-0.5,1.1-1.1,1.1   c-0.6,0-1.1-0.5-1.1-1.1C613.6,520,614.1,519.5,614.7,519.5L614.7,519.5z M614.8,519.8c0.5,0,0.8,0.4,0.8,0.9   c0,0.5-0.4,0.8-0.8,0.8c-0.5,0-0.9-0.4-0.9-0.8c0-0.1,0-0.2,0-0.3c0.1,0.2,0.2,0.3,0.4,0.3c0.2,0,0.5-0.2,0.5-0.5   c0-0.2-0.1-0.3-0.3-0.4C614.6,519.8,614.7,519.8,614.8,519.8L614.8,519.8z"
   id="path92" />
	<path
   fill-rule="evenodd"
   clip-rule="evenodd"
   fill="#FFFFCC"
   d="M646,529c0.6,0,1.1,0.5,1.1,1.1c0,0.6-0.5,1.1-1.1,1.1   c-0.6,0-1.1-0.5-1.1-1.1C644.9,529.5,645.4,529,646,529L646,529z M646,529.2c0.5,0,0.8,0.4,0.8,0.9s-0.4,0.9-0.8,0.9   c-0.5,0-0.9-0.4-0.9-0.9c0-0.1,0-0.2,0-0.2c0.1,0.1,0.2,0.2,0.4,0.2c0.2,0,0.5-0.2,0.5-0.4c0-0.2-0.1-0.4-0.3-0.4   C645.9,529.3,645.9,529.2,646,529.2L646,529.2z"
   id="path94" />
	<path
   fill-rule="evenodd"
   clip-rule="evenodd"
   fill="#FFFFCC"
   d="M637.2,496.7c0.6,0,1,0.5,1,1.1c0,0.6-0.5,1.1-1,1.1   c-0.6,0-1.1-0.5-1.1-1.1C636.1,497.1,636.6,496.7,637.2,496.7L637.2,496.7z M637.2,496.9c0.5,0,0.9,0.4,0.9,0.9   c0,0.5-0.4,0.9-0.9,0.9c-0.5,0-0.8-0.4-0.8-0.9c0-0.1,0-0.2,0-0.2c0.1,0.1,0.2,0.2,0.4,0.2c0.2,0,0.4-0.2,0.4-0.4   c0-0.2-0.1-0.4-0.2-0.4C637,497,637.1,496.9,637.2,496.9L637.2,496.9z"
   id="path96" />
</g>
<g
   id="g108">
	<path
   fill="#D9D997"
   d="M653,720.2c0,2.6-0.9,5-2.7,6.7c-3.7,3.7-9.3,3.7-13,0c-1.7-1.7-2.3-4.1-2.3-6.7v-35.5c0-2.6,0.7-5,2.4-6.7   c3.7-3.7,9.4-3.7,13.1,0c1.7,1.8,2.5,4.1,2.5,6.7V720.2z M637,705.5c0,1.8,0.8,3.5,2,4.7c2.6,2.6,7.1,2.6,9.8,0   c1.2-1.2,2.2-2.9,2.2-4.7v-20.8c0-1.8-1-3.5-2.2-4.7c-2.6-2.6-7-2.6-9.6,0c-1.2,1.2-2.1,2.9-2.1,4.7V705.5z M637,712.2v8   c0,1.8,0.8,3.5,2,4.7c2.6,2.6,7.1,2.6,9.8,0c1.2-1.2,2.2-2.9,2.2-4.7v-8C647,715.9,641,715.9,637,712.2L637,712.2z"
   id="path100" />
	<path
   fill="#9999FF"
   d="M651,701v17.2c0,2.6-0.9,5-2.7,6.7c-1.7,1.7-4.1,2.8-6.7,2.8l0,0c-2.6,0-5.1-1.1-6.8-2.8   c-1.7-1.7-2.9-4.1-2.9-6.7V701h3v17.2c0,1.8,0.8,3.5,2,4.7c1.2,1.2,2.9,2,4.7,2l0,0c1.9,0,3.3-0.7,4.5-2c1.2-1.2,1.7-2.9,1.7-4.7   V701H651z"
   id="path102" />
	<path
   fill="#7373D9"
   d="M651,701v4.3c0,2.6-1.2,5-2.9,6.7l-0.1,0v-6.8V701H651z M632,705.3V701h3v4.3v6.8v0c-1-1.7-3-3.8-3-6.4   V705.3z"
   id="path104" />
	<path
   fill="#9999FF"
   d="M641.7,673.2L641.7,673.2c2.6,0,4.9,1.1,6.6,2.8c1.7,1.8,2.7,4.1,2.7,6.7v20.8c0,2.6-0.9,5-2.7,6.7   c-1.7,1.7-4.1,2.8-6.7,2.8l0,0c-2.6,0-5.1-1.1-6.8-2.8c-1.7-1.7-2.9-4.1-2.9-6.7v-20.8c0-2.6,1.2-5,2.9-6.7   C636.6,674.3,639.1,673.2,641.7,673.2L641.7,673.2z M641.7,676L641.7,676c-1.8,0-3.5,0.7-4.7,2c-1.2,1.2-2,2.9-2,4.7v20.8   c0,1.8,0.8,3.5,2,4.7c1.2,1.2,2.9,2,4.7,2l0,0c1.9,0,3.3-0.8,4.5-2c1.2-1.2,1.7-2.9,1.7-4.7v-20.8c0-1.8-0.5-3.5-1.7-4.7   C645,676.8,643.6,676,641.7,676L641.7,676z"
   id="path106" />
</g>
<g
   id="g118">
	<path
   fill="#D9D997"
   d="M605.1,753.2c1.7,1.9,2.6,4.4,2.4,6.9c-0.3,5.3-4.7,9.3-10,9c-2.4-0.1-4.8-1.2-6.6-3.2l-23.7-26.4   c-1.7-2-2.6-4.4-2.4-6.9c0.3-5.3,4.8-9.3,10-9c2.4,0.1,4.8,1.2,6.6,3.1L605.1,753.2z M583.3,753.1c1.2,1.4,2.9,2.1,4.6,2.2   c3.7,0.2,6.9-2.6,7.1-6.3c0.1-1.7-0.5-3.5-1.7-4.8l-13.9-15.4c-1.2-1.4-2.9-2.1-4.6-2.2c-3.7-0.2-6.9,2.6-7.1,6.3   c-0.1,1.7,0.5,3.5,1.7,4.8L583.3,753.1z M587.7,758.1l5.3,5.9c1.2,1.4,2.9,2.1,4.6,2.2c3.7,0.2,6.9-2.6,7.1-6.3   c0.1-1.7-0.5-3.5-1.7-4.9l-5.3-5.9C597.4,754.4,593,758.4,587.7,758.1L587.7,758.1z"
   id="path110" />
	<path
   fill="#9999FF"
   d="M590.8,737.4l12.4,13.8c1.7,1.9,2.6,4.4,2.4,6.9c-0.1,2.5-1.2,4.8-3.1,6.6l0,0c-2,1.8-4.4,2.6-6.9,2.4   c-2.4-0.1-4.8-1.2-6.6-3.2l-12.4-13.8l2.1-1.9l12.4,13.8c1.2,1.4,2.9,2.1,4.6,2.2c1.7,0.1,3.5-0.5,4.9-1.7l0,0   c1.4-1.2,2.1-2.9,2.2-4.6c0.1-1.7-0.5-3.5-1.7-4.9l-12.4-13.8L590.8,737.4z"
   id="path112" />
	<path
   fill="#7373D9"
   d="M590.8,737.4l3.8,4.2c1.7,2,2.5,4.4,2.4,6.9l0,0l-4.5-5l-3.8-4.2L590.8,737.4z M580.4,754.6l-3.8-4.4l2.1-2   l3.8,4.5l4.5,5.2h0C584.6,758,582.2,756.6,580.4,754.6L580.4,754.6z"
   id="path114" />
	<path
   fill="#9999FF"
   d="M566,724.1L566,724.1c2-1.8,4.4-2.6,6.9-2.4c2.4,0.1,4.8,1.2,6.6,3.1l13.9,15.4c1.7,2,2.6,4.4,2.4,6.9   c-0.1,2.4-1.2,4.8-3.1,6.6l0,0c-2,1.8-4.4,2.5-6.9,2.4c-2.4-0.1-4.8-1.2-6.6-3.1l-13.9-15.4c-1.7-2-2.6-4.4-2.4-6.9   C563,728.2,564.1,725.8,566,724.1L566,724.1z M567.9,726.2L567.9,726.2c-1.4,1.2-2.1,2.9-2.2,4.6c-0.1,1.7,0.5,3.5,1.7,4.8   l13.9,15.4c1.2,1.4,2.9,2.1,4.6,2.2c1.7,0.1,3.5-0.5,4.8-1.7l0,0c1.4-1.2,2.1-2.9,2.2-4.7c0.1-1.7-0.5-3.5-1.7-4.8l-13.9-15.4   c-1.2-1.4-2.9-2.1-4.6-2.2C571.1,724.4,569.3,724.9,567.9,726.2L567.9,726.2z"
   id="path116" />
</g>
<g
   id="g128">
	<path
   fill="#D9D997"
   d="M692.8,804.4c-1,2.4-2.9,4.2-5.2,5.1c-4.9,2-10.4-0.3-12.4-5.2c-0.9-2.3-1-4.9,0-7.3   c4.5-10.9,9.1-21.8,13.6-32.7c1-2.5,2.9-4.2,5.2-5.1c4.9-2,10.4,0.3,12.4,5.2c0.9,2.3,1,4.9,0,7.3L692.8,804.4z M680.9,790.8   l-3.1,7.3c-0.7,1.7-0.7,3.6,0,5.1c1.4,3.4,5.3,5.1,8.7,3.7c1.6-0.7,2.9-1.9,3.6-3.6l3.1-7.3C688.5,797.9,682.9,795.7,680.9,790.8   L680.9,790.8z M695.2,761.8c-1.6,0.7-2.9,1.9-3.7,3.6l-8,19.1c-0.7,1.7-0.7,3.5,0,5.1c1.4,3.4,5.3,5.1,8.7,3.6   c1.6-0.6,2.9-1.9,3.6-3.6l8-19.1c0.7-1.7,0.7-3.6,0-5.1C702.5,762,698.6,760.4,695.2,761.8L695.2,761.8z"
   id="path120" />
	<path
   fill="#F898FF"
   d="M698,785.3l-7.1,17.1c-1,2.4-2.9,4.2-5.2,5.1c-2.2,0.9-4.9,1-7.3,0l0,0c-2.4-1-4.2-2.9-5.1-5.1   c-0.9-2.3-1-4.9,0-7.3l7.1-17.1l2.6,1.1l-7.1,17.1c-0.7,1.7-0.7,3.6,0,5.1c0.6,1.6,1.9,2.9,3.6,3.6l0,0c1.7,0.7,3.5,0.7,5.1,0   c1.6-0.7,2.9-1.9,3.6-3.6l7.1-17.1L698,785.3z"
   id="path122" />
	<path
   fill="#D272D8"
   d="M698,785.3l-2.2,5.4c-1,2.4-2.9,4.3-5.1,5.3h0l2.6-6.4l2.2-5.3L698,785.3z M678.2,783.2l2.2-5.2l2.6,1.1   l-2.2,5.2l-2.6,6.2l0,0C677.3,788.2,677.2,785.6,678.2,783.2L678.2,783.2z"
   id="path124" />
	<path
   fill="#F898FF"
   d="M699.4,757.2L699.4,757.2c2.4,1,4.2,2.9,5.1,5.2c0.9,2.3,1,4.9,0,7.3l-8,19.1c-1,2.4-2.9,4.2-5.2,5.1   c-2.2,0.9-4.9,1-7.3,0l0,0c-2.4-1-4.2-2.9-5.1-5.2c-0.9-2.2-1-4.9,0-7.3l8-19.1c1-2.5,2.9-4.2,5.2-5.1   C694.4,756.3,697,756.2,699.4,757.2L699.4,757.2z M698.3,759.8L698.3,759.8c-1.7-0.7-3.5-0.7-5.1,0c-1.6,0.7-2.9,1.9-3.7,3.6   l-8,19.1c-0.7,1.7-0.7,3.5,0,5.1c0.6,1.6,1.9,2.9,3.6,3.6l0,0c1.7,0.7,3.5,0.7,5.1,0c1.6-0.7,2.9-1.9,3.6-3.6l8-19.1   c0.7-1.7,0.7-3.6,0-5.1C701.3,761.9,700,760.5,698.3,759.8L698.3,759.8z"
   id="path126" />
</g>
<g
   id="g296">
	<polygon
   fill-rule="evenodd"
   clip-rule="evenodd"
   fill="#D9D997"
   points="1261.9,643.5 1475,527.8 1524.4,619 1713,619 1713,968    1623.1,968 1626.2,980 1374.1,980 1311.4,756.9 1321.7,753.7  "
   id="polygon130" />
	<polygon
   fill-rule="evenodd"
   clip-rule="evenodd"
   fill="#E0C286"
   points="1254.9,636.5 1468,520.3 1635.1,827.5 1422,943.6  "
   id="polygon132" />
	<polygon
   fill-rule="evenodd"
   clip-rule="evenodd"
   fill="#C7AB73"
   points="1254.9,636.5 1468,520.3 1480.6,569.1 1386.4,620.5    1530.1,884.7 1527.1,886.4 1383.3,622.2 1289,673.5  "
   id="polygon134" />
	<rect
   x="1463"
   y="611"
   fill-rule="evenodd"
   clip-rule="evenodd"
   fill="#FFFFFF"
   width="243"
   height="350"
   id="rect136" />
	<rect
   x="1482"
   y="658"
   fill-rule="evenodd"
   clip-rule="evenodd"
   fill="#808080"
   width="205"
   height="2"
   id="rect138" />
	<rect
   x="1482"
   y="649"
   fill-rule="evenodd"
   clip-rule="evenodd"
   fill="#808080"
   width="47"
   height="5"
   id="rect140" />
	<rect
   x="1482"
   y="666"
   fill-rule="evenodd"
   clip-rule="evenodd"
   fill="#808080"
   width="24"
   height="4"
   id="rect142" />
	<rect
   x="1513"
   y="666"
   fill-rule="evenodd"
   clip-rule="evenodd"
   fill="#808080"
   width="3"
   height="4"
   id="rect144" />
	<rect
   x="1521"
   y="666"
   fill-rule="evenodd"
   clip-rule="evenodd"
   fill="#808080"
   width="49"
   height="4"
   id="rect146" />
	<rect
   x="1482"
   y="676"
   fill-rule="evenodd"
   clip-rule="evenodd"
   fill="#808080"
   width="61"
   height="5"
   id="rect148" />
	<rect
   x="1496"
   y="683"
   fill-rule="evenodd"
   clip-rule="evenodd"
   fill="#808080"
   width="107"
   height="5"
   id="rect150" />
	<rect
   x="1496"
   y="692"
   fill-rule="evenodd"
   clip-rule="evenodd"
   fill="#808080"
   width="85"
   height="4"
   id="rect152" />
	<rect
   x="1496"
   y="699"
   fill-rule="evenodd"
   clip-rule="evenodd"
   fill="#808080"
   width="176"
   height="5"
   id="rect154" />
	<rect
   x="1496"
   y="726"
   fill-rule="evenodd"
   clip-rule="evenodd"
   fill="#808080"
   width="38"
   height="4"
   id="rect156" />
	<rect
   x="1496"
   y="734"
   fill-rule="evenodd"
   clip-rule="evenodd"
   fill="#808080"
   width="60"
   height="4"
   id="rect158" />
	<rect
   x="1496"
   y="741"
   fill-rule="evenodd"
   clip-rule="evenodd"
   fill="#808080"
   width="31"
   height="5"
   id="rect160" />
	<rect
   x="1566"
   y="726"
   fill-rule="evenodd"
   clip-rule="evenodd"
   fill="#808080"
   width="33"
   height="4"
   id="rect162" />
	<rect
   x="1566"
   y="734"
   fill-rule="evenodd"
   clip-rule="evenodd"
   fill="#808080"
   width="53"
   height="4"
   id="rect164" />
	<rect
   x="1566"
   y="741"
   fill-rule="evenodd"
   clip-rule="evenodd"
   fill="#808080"
   width="20"
   height="5"
   id="rect166" />
	<rect
   x="1496"
   y="752"
   fill-rule="evenodd"
   clip-rule="evenodd"
   fill="#808080"
   width="38"
   height="5"
   id="rect168" />
	<rect
   x="1496"
   y="760"
   fill-rule="evenodd"
   clip-rule="evenodd"
   fill="#808080"
   width="60"
   height="4"
   id="rect170" />
	<rect
   x="1496"
   y="767"
   fill-rule="evenodd"
   clip-rule="evenodd"
   fill="#808080"
   width="31"
   height="5"
   id="rect172" />
	<rect
   x="1566"
   y="752"
   fill-rule="evenodd"
   clip-rule="evenodd"
   fill="#808080"
   width="33"
   height="5"
   id="rect174" />
	<rect
   x="1566"
   y="760"
   fill-rule="evenodd"
   clip-rule="evenodd"
   fill="#808080"
   width="53"
   height="4"
   id="rect176" />
	<rect
   x="1566"
   y="767"
   fill-rule="evenodd"
   clip-rule="evenodd"
   fill="#808080"
   width="20"
   height="5"
   id="rect178" />
	<rect
   x="1496"
   y="792"
   fill-rule="evenodd"
   clip-rule="evenodd"
   fill="#808080"
   width="178"
   height="5"
   id="rect180" />
	<rect
   x="1496"
   y="800"
   fill-rule="evenodd"
   clip-rule="evenodd"
   fill="#808080"
   width="178"
   height="5"
   id="rect182" />
	<rect
   x="1496"
   y="808"
   fill-rule="evenodd"
   clip-rule="evenodd"
   fill="#808080"
   width="178"
   height="5"
   id="rect184" />
	<rect
   x="1496"
   y="816"
   fill-rule="evenodd"
   clip-rule="evenodd"
   fill="#808080"
   width="178"
   height="4"
   id="rect186" />
	<rect
   x="1496"
   y="824"
   fill-rule="evenodd"
   clip-rule="evenodd"
   fill="#808080"
   width="178"
   height="5"
   id="rect188" />
	<rect
   x="1496"
   y="831"
   fill-rule="evenodd"
   clip-rule="evenodd"
   fill="#808080"
   width="178"
   height="5"
   id="rect190" />
	<rect
   x="1496"
   y="840"
   fill-rule="evenodd"
   clip-rule="evenodd"
   fill="#808080"
   width="178"
   height="5"
   id="rect192" />
	<rect
   x="1496"
   y="847"
   fill-rule="evenodd"
   clip-rule="evenodd"
   fill="#808080"
   width="178"
   height="5"
   id="rect194" />
	<rect
   x="1496"
   y="856"
   fill-rule="evenodd"
   clip-rule="evenodd"
   fill="#808080"
   width="178"
   height="5"
   id="rect196" />
	<rect
   x="1496"
   y="863"
   fill-rule="evenodd"
   clip-rule="evenodd"
   fill="#808080"
   width="178"
   height="5"
   id="rect198" />
	<rect
   x="1496"
   y="872"
   fill-rule="evenodd"
   clip-rule="evenodd"
   fill="#808080"
   width="178"
   height="5"
   id="rect200" />
	<rect
   x="1496"
   y="880"
   fill-rule="evenodd"
   clip-rule="evenodd"
   fill="#808080"
   width="178"
   height="4"
   id="rect202" />
	<rect
   x="1496"
   y="888"
   fill-rule="evenodd"
   clip-rule="evenodd"
   fill="#808080"
   width="178"
   height="5"
   id="rect204" />
	<rect
   x="1496"
   y="896"
   fill-rule="evenodd"
   clip-rule="evenodd"
   fill="#808080"
   width="178"
   height="4"
   id="rect206" />
	<rect
   x="1496"
   y="904"
   fill-rule="evenodd"
   clip-rule="evenodd"
   fill="#808080"
   width="178"
   height="5"
   id="rect208" />
	<rect
   x="1496"
   y="912"
   fill-rule="evenodd"
   clip-rule="evenodd"
   fill="#808080"
   width="178"
   height="4"
   id="rect210" />
	<rect
   x="1496"
   y="920"
   fill-rule="evenodd"
   clip-rule="evenodd"
   fill="#808080"
   width="178"
   height="4"
   id="rect212" />
	<rect
   x="1496"
   y="928"
   fill-rule="evenodd"
   clip-rule="evenodd"
   fill="#808080"
   width="178"
   height="4"
   id="rect214" />
	<polygon
   fill-rule="evenodd"
   clip-rule="evenodd"
   fill="#FFFFFF"
   points="1304.4,749.9 1537.9,684.3 1621.2,980 1369.1,980  "
   id="polygon216" />
	<polygon
   fill-rule="evenodd"
   clip-rule="evenodd"
   fill="#808080"
   points="1334.2,788.1 1532.8,732.1 1533.5,734.5 1334.9,790.6     "
   id="polygon218" />
	<polygon
   fill-rule="evenodd"
   clip-rule="evenodd"
   fill="#808080"
   points="1332,780.4 1378.9,767.2 1380.1,771.5 1333.2,784.7  "
   id="polygon220" />
	<polygon
   fill-rule="evenodd"
   clip-rule="evenodd"
   fill="#808080"
   points="1336.5,796.4 1360,789.8 1361.2,794.1 1337.7,800.7  "
   id="polygon222" />
	<polygon
   fill-rule="evenodd"
   clip-rule="evenodd"
   fill="#808080"
   points="1367.5,787.7 1370.1,787 1371.3,791.2 1368.7,792  "
   id="polygon224" />
	<polygon
   fill-rule="evenodd"
   clip-rule="evenodd"
   fill="#808080"
   points="1374.7,785.7 1422.2,772.3 1423.4,776.6 1375.8,790  "
   id="polygon226" />
	<polygon
   fill-rule="evenodd"
   clip-rule="evenodd"
   fill="#808080"
   points="1339.4,806.4 1398.8,789.6 1400,793.9 1340.5,810.7  "
   id="polygon228" />
	<polygon
   fill-rule="evenodd"
   clip-rule="evenodd"
   fill="#808080"
   points="1356,809.8 1458.9,780.8 1460.1,785.1 1357.2,814.1  "
   id="polygon230" />
	<polygon
   fill-rule="evenodd"
   clip-rule="evenodd"
   fill="#808080"
   points="1358,817.2 1439.1,794.3 1440.4,798.6 1359.2,821.4  "
   id="polygon232" />
	<polygon
   fill-rule="evenodd"
   clip-rule="evenodd"
   fill="#808080"
   points="1360.1,824.5 1528.6,777 1529.8,781.3 1361.3,828.8  "
   id="polygon234" />
	<polygon
   fill-rule="evenodd"
   clip-rule="evenodd"
   fill="#808080"
   points="1367.4,850.3 1403.9,840 1405.1,844.3 1368.6,854.6  "
   id="polygon236" />
	<polygon
   fill-rule="evenodd"
   clip-rule="evenodd"
   fill="#808080"
   points="1369.5,857.9 1426.8,841.7 1428,846 1370.7,862.1  "
   id="polygon238" />
	<polygon
   fill-rule="evenodd"
   clip-rule="evenodd"
   fill="#808080"
   points="1371.4,864.8 1401.3,856.3 1402.5,860.6 1372.7,869  "
   id="polygon240" />
	<polygon
   fill-rule="evenodd"
   clip-rule="evenodd"
   fill="#808080"
   points="1435,831.3 1465.9,822.5 1467.1,826.8 1436.2,835.5  "
   id="polygon242" />
	<polygon
   fill-rule="evenodd"
   clip-rule="evenodd"
   fill="#808080"
   points="1437.1,838.8 1487.7,824.5 1489,828.8 1438.4,843  "
   id="polygon244" />
	<polygon
   fill-rule="evenodd"
   clip-rule="evenodd"
   fill="#808080"
   points="1439.1,845.7 1457.2,840.6 1458.4,844.9 1440.3,849.9     "
   id="polygon246" />
	<polygon
   fill-rule="evenodd"
   clip-rule="evenodd"
   fill="#808080"
   points="1374.5,875.5 1411,865.2 1412.2,869.5 1375.7,879.8  "
   id="polygon248" />
	<polygon
   fill-rule="evenodd"
   clip-rule="evenodd"
   fill="#808080"
   points="1376.6,883 1433.9,866.9 1435.1,871.2 1377.8,887.3  "
   id="polygon250" />
	<polygon
   fill-rule="evenodd"
   clip-rule="evenodd"
   fill="#808080"
   points="1378.5,889.9 1408.4,881.5 1409.6,885.8 1379.7,894.2     "
   id="polygon252" />
	<polygon
   fill-rule="evenodd"
   clip-rule="evenodd"
   fill="#808080"
   points="1442.1,856.4 1473,847.7 1474.2,852 1443.3,860.7  "
   id="polygon254" />
	<polygon
   fill-rule="evenodd"
   clip-rule="evenodd"
   fill="#808080"
   points="1444.2,864 1494.8,849.7 1496.1,854 1445.4,868.2  "
   id="polygon256" />
	<polygon
   fill-rule="evenodd"
   clip-rule="evenodd"
   fill="#808080"
   points="1446.2,870.8 1464.3,865.8 1465.5,870 1447.4,875.2  "
   id="polygon258" />
	<polygon
   fill-rule="evenodd"
   clip-rule="evenodd"
   fill="#808080"
   points="1385.3,914.1 1556.6,865.8 1557.8,870.1 1386.6,918.4     "
   id="polygon260" />
	<polygon
   fill-rule="evenodd"
   clip-rule="evenodd"
   fill="#808080"
   points="1387.4,921.4 1558.7,873.1 1559.9,877.4 1388.6,925.7     "
   id="polygon262" />
	<polygon
   fill-rule="evenodd"
   clip-rule="evenodd"
   fill="#808080"
   points="1389.7,929.5 1560.9,881.2 1562.1,885.4 1390.9,933.8     "
   id="polygon264" />
	<polygon
   fill-rule="evenodd"
   clip-rule="evenodd"
   fill="#808080"
   points="1391.7,936.8 1563,888.5 1564.2,892.8 1393,941.1  "
   id="polygon266" />
	<polygon
   fill-rule="evenodd"
   clip-rule="evenodd"
   fill="#808080"
   points="1394,944.9 1565.3,896.5 1566.5,900.8 1395.2,949.1  "
   id="polygon268" />
	<polygon
   fill-rule="evenodd"
   clip-rule="evenodd"
   fill="#808080"
   points="1396.1,952.2 1567.3,903.9 1568.6,908.2 1397.3,956.5     "
   id="polygon270" />
	<polygon
   fill-rule="evenodd"
   clip-rule="evenodd"
   fill="#808080"
   points="1398.3,960.2 1569.6,911.9 1570.8,916.2 1399.5,964.5     "
   id="polygon272" />
	<polygon
   fill-rule="evenodd"
   clip-rule="evenodd"
   fill="#808080"
   points="1400.4,967.6 1571.7,919.3 1572.9,923.6 1401.6,971.9     "
   id="polygon274" />
	<polygon
   fill-rule="evenodd"
   clip-rule="evenodd"
   fill="#808080"
   points="1402.7,976.2 1573.9,927.6 1575.1,932.3 1407.5,980    1403.6,980  "
   id="polygon276" />
	<polygon
   fill-rule="evenodd"
   clip-rule="evenodd"
   fill="#808080"
   points="1419.2,980 1576,935.2 1577.2,939.8 1435.6,980  "
   id="polygon278" />
	<polygon
   fill-rule="evenodd"
   clip-rule="evenodd"
   fill="#808080"
   points="1449.9,980 1578.3,943.2 1579.5,947.8 1466.3,980  "
   id="polygon280" />
	<polygon
   fill-rule="evenodd"
   clip-rule="evenodd"
   fill="#808080"
   points="1478,980 1580.3,950.6 1581.5,955.1 1494.4,980  "
   id="polygon282" />
	<polygon
   fill-rule="evenodd"
   clip-rule="evenodd"
   fill="#808080"
   points="1508.8,980 1582.6,958.6 1583.8,963.2 1525.2,980  "
   id="polygon284" />
	<polygon
   fill-rule="evenodd"
   clip-rule="evenodd"
   fill="#808080"
   points="1536.9,980 1584.7,966 1585.9,970.5 1553.3,980  "
   id="polygon286" />
	<polygon
   fill-rule="evenodd"
   clip-rule="evenodd"
   fill="#808080"
   points="1567.6,980 1586.9,974 1588.1,978.6 1584,980  "
   id="polygon288" />
	<path
   fill="#F898FF"
   d="M1392,702.1l-9.6,15.8c-1.4,2.2-3.5,3.7-5.9,4.3c-2.3,0.6-5,0.2-7.2-1.1l0,0c-2.2-1.4-3.7-3.5-4.3-5.9   c-0.6-2.4-0.3-5,1.1-7.2l9.6-15.9l2.4,1.5l-9.6,15.8c-0.9,1.6-1.2,3.4-0.8,5.1c0.4,1.6,1.5,3.2,3,4.1l0,0c1.6,0.9,3.4,1.2,5.1,0.8   c1.7-0.4,3.2-1.5,4.1-3l9.6-15.9L1392,702.1z"
   id="path290" />
	<path
   fill="#D272D8"
   d="M1392,702.1l-2.9,5.3c-1.3,2.2-3.5,4.7-5.8,4.7h0l3.5-6.2l2.9-5.1L1392,702.1z M1372.4,697.1l3.1-4.9   l2.5,1.5l-3.2,4.9l-3.8,5.8v0C1371,701.9,1371.1,699.3,1372.4,697.1L1372.4,697.1z"
   id="path292" />
	<path
   fill="#F898FF"
   d="M1397.5,674.5L1397.5,674.5c2.2,1.4,3.7,3.5,4.3,5.9c0.6,2.4,0.3,5-1.1,7.2l-10.7,17.8   c-1.4,2.2-3.5,3.7-5.9,4.3c-2.3,0.6-4.9,0.3-7.2-1.1l0,0c-2.2-1.4-3.7-3.5-4.3-5.9c-0.6-2.3-0.3-4.9,1.1-7.2l10.7-17.7   c1.4-2.3,3.5-3.7,5.9-4.3C1392.7,672.8,1395.3,673.1,1397.5,674.5L1397.5,674.5z M1396,676.9L1396,676.9c-1.6-0.9-3.4-1.2-5.1-0.8   c-1.6,0.4-3.2,1.5-4.1,3l-10.7,17.8c-0.9,1.6-1.2,3.4-0.8,5.1c0.4,1.7,1.5,3.2,3,4.1l0,0c1.6,1,3.4,1.2,5.1,0.8   c1.7-0.4,3.2-1.5,4.1-3l10.7-17.8c1-1.6,1.2-3.4,0.8-5.1C1398.7,679.4,1397.6,677.8,1396,676.9L1396,676.9z"
   id="path294" />
</g>
<g
   id="g328">
	<path
   fill-rule="evenodd"
   clip-rule="evenodd"
   fill="#D9D997"
   d="M580.6,223.8c2,0,3.9,0.1,5.8,0.3l4.2-25.5l9-19.1l2.9-7.7   l0.3,8.2l2.4,21l-4.3,25.9c27.3,8.7,47.1,34.3,47.1,64.5c0,37.4-30.3,67.6-67.6,67.6c-37.3,0-67.6-30.2-67.6-67.6   c0-17.9,7-34.2,18.3-46.3l-18.9-24.7l-7.8-19.7l-3.5-7.4l6.2,5.4l17,12.6l18.4,24.1C553.5,228.1,566.6,223.8,580.6,223.8   L580.6,223.8z"
   id="path298" />
	<path
   fill-rule="evenodd"
   clip-rule="evenodd"
   fill="#FFFFFF"
   d="M573.6,352.1c37.2,0,67.6-30.4,67.6-67.6s-30.4-67.6-67.6-67.6   c-37.2,0-67.6,30.4-67.6,67.6S536.4,352.1,573.6,352.1L573.6,352.1z"
   id="path300" />
	<path
   fill-rule="evenodd"
   clip-rule="evenodd"
   fill="#669999"
   d="M573.6,343.1c32.3,0,58.6-26.4,58.6-58.6   c0-32.3-26.3-58.6-58.6-58.6c-32.3,0-58.6,26.3-58.6,58.6C515,316.8,541.3,343.1,573.6,343.1L573.6,343.1z"
   id="path302" />
	<path
   fill-rule="evenodd"
   clip-rule="evenodd"
   fill="#BABA00"
   d="M593,303.2l-11.8,9.1l8.8,11.5c2.5,3.3,7.2,3.9,10.4,1.4l0,0   c3.3-2.5,3.9-7.2,1.4-10.5L593,303.2z"
   id="path304" />
	<path
   fill-rule="evenodd"
   clip-rule="evenodd"
   fill="#808080"
   d="M593,303.2c-0.9,6.4-4.8,9.5-11.8,9.1l-1.7-2.2   c4-3,7.9-6.1,11.9-9.1L593,303.2z"
   id="path306" />
	<path
   fill-rule="evenodd"
   clip-rule="evenodd"
   fill="#FFFF00"
   d="M591.3,301c-0.7,6.9-4.7,10-11.9,9.1l-74-96.6l11.8-9.1L591.3,301   z"
   id="path308" />
	<path
   fill-rule="evenodd"
   clip-rule="evenodd"
   fill="#BABA00"
   d="M591.3,301c-0.7,6.9-4.7,10-11.9,9.1l-38.9-50.8l0,0   c5.2,2.7,13.4-3.2,11.8-9.2L591.3,301z"
   id="path310" />
	<path
   fill-rule="evenodd"
   clip-rule="evenodd"
   fill="#FFCC99"
   d="M517.3,204.4c2.3,7.3-5.8,12.5-11.8,9.1l-7.8-19.7l2.7-2   L517.3,204.4z"
   id="path312" />
	<path
   fill-rule="evenodd"
   clip-rule="evenodd"
   fill="#4D4D4D"
   d="M494.1,186.4l3.5,7.4c1.9,0.9,3.2-0.1,2.7-2L494.1,186.4z"
   id="path314" />
	<path
   fill-rule="evenodd"
   clip-rule="evenodd"
   fill="#333333"
   d="M576.8,314.4l-10.6-1.7l-1.7,10.3c-0.5,2.9,1.5,5.7,4.4,6.1l0,0   c2.9,0.5,5.7-1.5,6.1-4.4L576.8,314.4z"
   id="path316" />
	<path
   fill-rule="evenodd"
   clip-rule="evenodd"
   fill="#333333"
   d="M578.6,314.2c-5.6,4.2-10.5,3.5-14.7-2.4l19.8-120.1l14.7,2.5   L578.6,314.2z"
   id="path318" />
	<path
   fill-rule="evenodd"
   clip-rule="evenodd"
   fill="#1A1A1A"
   d="M578.6,314.2c-5.6,4.2-10.5,3.5-14.7-2.4l10.8-65.4   c1.9,5.9,12.1,6.9,14.7,2.2L578.6,314.2z"
   id="path320" />
	<path
   fill-rule="evenodd"
   clip-rule="evenodd"
   fill="#808080"
   d="M588.1,256.9c-2.9,4.7-12.2,3.9-14.7-2.4l0.5-2.7   c0.6,5.1,11.5,8.3,14.7,2.4L588.1,256.9z"
   id="path322" />
	<path
   fill-rule="evenodd"
   clip-rule="evenodd"
   fill="#999999"
   d="M598.4,194.1c-3.7,6.7-13.1,4.3-14.7-2.5l9-19.1l3.3,0.5   L598.4,194.1z"
   id="path324" />
	<path
   fill-rule="evenodd"
   clip-rule="evenodd"
   fill="#4D4D4D"
   d="M595.6,164.9l-2.9,7.7c0.6,2,2.2,2.2,3.3,0.5L595.6,164.9z"
   id="path326" />
</g>
<g
   id="g350">
	<polygon
   fill-rule="evenodd"
   clip-rule="evenodd"
   fill="#D9D997"
   points="1514.6,28.4 1610.8,70.6 1623.5,49.4 1646.6,59.6    1639.6,83.3 1735.8,125.6 1726.5,146.8 1654.5,232.5 1491,160.6 1505.3,49.6  "
   id="polygon330" />
	<polygon
   fill-rule="evenodd"
   clip-rule="evenodd"
   fill="#C28E59"
   points="1507.6,21.4 1728.8,118.6 1719.5,139.8 1498.3,42.5  "
   id="polygon332" />
	<polygon
   fill-rule="evenodd"
   clip-rule="evenodd"
   fill="#996633"
   points="1484,153.6 1647.5,225.5 1719.5,139.8 1498.3,42.5  "
   id="polygon334" />
	<polygon
   fill-rule="evenodd"
   clip-rule="evenodd"
   fill="#FF9999"
   points="1512.1,139.7 1638.7,195.3 1678.8,138.6 1526.8,71.8  "
   id="polygon336" />
	<path
   fill-rule="evenodd"
   clip-rule="evenodd"
   fill="#FFFFFF"
   d="M1526.7,146.1l97.4,42.9c-5.7-14-21-28.4-41.6-37.5   C1561.8,142.3,1540.9,140.8,1526.7,146.1L1526.7,146.1z"
   id="path338" />
	<polygon
   fill-rule="evenodd"
   clip-rule="evenodd"
   fill="#C28E59"
   points="1512.1,139.7 1638.7,195.3 1635.2,203.4 1508.6,147.7     "
   id="polygon340" />
	<polygon
   fill-rule="evenodd"
   clip-rule="evenodd"
   fill="#785029"
   points="1512.1,139.7 1526.8,71.8 1523.6,70.4 1508.6,147.7  "
   id="polygon342" />
	<polygon
   fill-rule="evenodd"
   clip-rule="evenodd"
   fill="#785029"
   points="1638.7,195.3 1678.8,138.6 1681.9,140 1635.2,203.4  "
   id="polygon344" />
	<polygon
   fill-rule="evenodd"
   clip-rule="evenodd"
   fill="#996633"
   points="1616.6,42.4 1639.6,52.6 1632.6,76.3 1603.8,63.6  "
   id="polygon346" />
	<path
   fill-rule="evenodd"
   clip-rule="evenodd"
   fill="#FFFFFF"
   d="M1597.1,118.1c13.6,6,21.9,17.3,18.4,25.3   c-3.5,7.9-17.4,9.6-31,3.6c-13.6-6-21.8-17.3-18.3-25.3C1569.6,113.7,1583.5,112.1,1597.1,118.1L1597.1,118.1z"
   id="path348" />
</g>
<g
   id="g378">
	<path
   fill-rule="evenodd"
   clip-rule="evenodd"
   fill="#D9D997"
   d="M814.3,47.2c16.1,0,31.1,4.3,44,11.9c9.8-1.6,20.9-2.6,33.6-2.6   c0,12.7-0.9,23.7-2.4,33.5c7.8,13.1,12.3,28.4,12.3,44.8c0,7.9-1,15.7-3,23c4.1,9,7.9,19.5,11.2,31.8c-12.2,3.3-23.2,5.3-33,6.3   c-10.9,11.2-24.8,19.5-40.3,23.6c-5.7,8.1-12.9,16.6-21.9,25.6c-8.9-9-16.1-17.4-21.9-25.3c-23.2-5.9-42.8-21.1-54.4-41.4   c-9.3-3.4-19.3-8.2-30.3-14.5c6.3-11,12.6-20.2,18.8-27.8c0-0.4,0-0.8,0-1.1c0-24.3,9.9-46.3,25.9-62.1c0.9-9.9,2.9-20.9,6.2-33.1   c12.2,3.3,22.7,7,31.7,11C798.1,48.4,806.1,47.2,814.3,47.2L814.3,47.2z"
   id="path352" />
	<path
   fill-rule="evenodd"
   clip-rule="evenodd"
   fill="#666633"
   d="M807.4,215.3c48.2,0,87.5-39.3,87.5-87.5   c0-48.2-39.3-87.6-87.5-87.6c-48.2,0-87.5,39.3-87.5,87.6C719.9,176,759.2,215.3,807.4,215.3L807.4,215.3z"
   id="path354" />
	<path
   fill-rule="evenodd"
   clip-rule="evenodd"
   fill="#4F4F25"
   d="M807.4,205.6c42.8,0,77.8-34.9,77.8-77.8   c0-42.9-35-77.8-77.8-77.8c-42.8,0-77.8,34.9-77.8,77.8C729.6,170.6,764.5,205.6,807.4,205.6L807.4,205.6z"
   id="path356" />
	<path
   fill-rule="evenodd"
   clip-rule="evenodd"
   fill="#5D8132"
   d="M807.7,111.6c27.6,7.3,75.3,51,0,126.4   C732.4,162.6,777.3,122.1,807.7,111.6L807.7,111.6z"
   id="path358" />
	<path
   fill-rule="evenodd"
   clip-rule="evenodd"
   fill="#4C6B28"
   d="M807.7,111.6c8.9,2.3,19.7,8.4,28,18c-1.9,4.7-6.5,7.9-11.9,7.9   c-7,0-12.8-5.6-12.8-12.7c-1.3,0.6-2.8,0.9-4.3,0.9c-5.3,0-9.7-3.8-10.6-8.9C800,114.6,804,112.9,807.7,111.6L807.7,111.6z    M768.7,178.9c-0.7-2.4-1.2-4.8-1.5-7.1c0.8-1.1,2.1-1.7,3.6-1.7c2.6,0,4.6,2.1,4.6,4.6s-2.1,4.7-4.6,4.7   C770,179.4,769.3,179.2,768.7,178.9L768.7,178.9z M766.5,165c0,0,0-3,0.1-4h0.1c1.2,0,2.2,0.8,2.2,2c0,1.2-1,2-2.2,2   C766.6,165,766.5,165,766.5,165L766.5,165z M786,191.1c1.2,0,2.2,1,2.2,2.2c0,1.2-1,2.2-2.2,2.2c-1.2,0-2.2-1-2.2-2.2   C783.8,192.1,784.8,191.1,786,191.1L786,191.1z M799.2,183.8c2.6,0,4.6,2.1,4.6,4.7c0,1.5-0.7,2.8-1.9,3.7c0.9,0.3,1.5,1.1,1.5,2.1   c0,1.2-1,2.2-2.2,2.2c-1.2,0-2.2-0.5-2.2-1.7c0-0.4,0.1-0.7,0.3-0.7c-0.1,0-0.1,0-0.2,0c-2.6,0-4.7-2.5-4.7-5.1   S796.6,183.8,799.2,183.8L799.2,183.8z M831.4,174.2c1.2,0,2.2,1,2.2,2.2c0,1.2-1,2.2-2.2,2.2c-1.2,0-2.2-1-2.2-2.2   C829.1,175.2,830.1,174.2,831.4,174.2L831.4,174.2z M811.4,207.3c1.2,0,2.2,1,2.2,2.2c0,1.2-1,2.2-2.2,2.2c-1.2,0-2.2-1-2.2-2.2   C809.2,208.3,810.3,207.3,811.4,207.3L811.4,207.3z M811.7,173.5c1.2,0,2.2,1,2.2,2.2c0,1.2-1,2.2-2.2,2.2c-1.2,0-2.2-1-2.2-2.2   C809.5,174.5,810.5,173.5,811.7,173.5L811.7,173.5z M807.2,156.4c0.4,0.4,0.6,0.9,0.6,1.5c0,1.2-1,2.4-2.2,2.4   c-1,0-1.9-0.3-2.1-1.3c-0.1,0-0.1,0-0.2,0c-2.6,0-4.7-2.3-4.7-4.9s2.1-4.7,4.7-4.7s4.6,2,4.6,4.6   C808,154.9,807.7,155.7,807.2,156.4L807.2,156.4z M823.1,178.9c2.6,0,4.6,2.1,4.6,4.7c0,2.6-2.1,4.6-4.6,4.6   c-2.6,0-4.6-2.1-4.6-4.6C818.5,181,820.6,178.9,823.1,178.9L823.1,178.9z M792.1,158.9c2.2,0.4,3.9,2.3,3.9,4.6   c0,2.6-2.1,4.7-4.6,4.7c-2.6,0-4.7-2.1-4.7-4.7c0-0.4,0.1-0.8,0.1-1.1c-0.9,0.3-2,0.4-3,0.4c-5.9,0-10.8-4.8-10.8-10.7   c0-6,4.8-10.8,10.8-10.8c5.9,0,10.7,4.8,10.7,10.8C794.5,154.6,793.6,157,792.1,158.9L792.1,158.9z M811.4,136.7   c1.2,0,2.2,1,2.2,2.2c0,1.2-1,2.2-2.2,2.2c-1.2,0-2.2-1-2.2-2.2C809.2,137.6,810.2,136.7,811.4,136.7L811.4,136.7z M831.7,141.2   c3.8,0,6.8,3.1,6.8,6.8c0,3.8-3,6.9-6.8,6.9c-3.8,0-6.8-3.1-6.8-6.9C824.9,144.3,827.9,141.2,831.7,141.2L831.7,141.2z    M791.1,125.7c2.6,0,4.6,2.1,4.6,4.6c0,2.6-2.1,4.7-4.6,4.7c-2.6,0-4.6-2.1-4.6-4.7C786.5,127.7,788.5,125.7,791.1,125.7   L791.1,125.7z"
   id="path360" />
	<path
   fill-rule="evenodd"
   clip-rule="evenodd"
   fill="#688F38"
   d="M823.1,124c0.1,28.6-29.8,86-122,32.7   C754.3,64.4,805,97.3,823.1,124L823.1,124z"
   id="path362" />
	<path
   fill-rule="evenodd"
   clip-rule="evenodd"
   fill="#55762D"
   d="M823.1,124c0,9.1-3,21.2-10.1,31.7c-5-0.7-9.3-4.3-10.7-9.4   c-1.8-6.8,2.2-13.8,9-15.7c-0.9-1.1-1.6-2.4-2-3.9c-1.4-5.1,1.2-10.4,5.8-12.5C818.2,117.3,820.9,120.7,823.1,124L823.1,124z    M747.9,103.6c2.2-1.3,4.3-2.4,6.4-3.3c1.2,0.6,2.2,1.6,2.6,3c0.7,2.5-0.8,5-3.3,5.7c-2.4,0.7-5-0.8-5.7-3.3   C747.8,105,747.8,104.3,747.9,103.6L747.9,103.6z M761.6,97.7c1.4-0.4,2.9-0.8,4.3-1.1l0,0.1c0.3,1.2-0.4,2.4-1.5,2.7   c-1.2,0.3-2.4-0.4-2.7-1.6C761.6,97.8,761.6,97.8,761.6,97.7L761.6,97.7z M740.7,123.5c0.3,1.2-0.3,2.4-1.5,2.7   c-1.2,0.3-2.4-0.4-2.7-1.5c-0.3-1.2,0.4-2.4,1.5-2.7C739.2,121.6,740.4,122.3,740.7,123.5L740.7,123.5z M751.1,134.4   c0.7,2.5-0.8,5-3.3,5.7c-1.5,0.4-2.9,0-4.1-0.8c-0.1,0.9-0.7,1.8-1.6,2c-1.2,0.3-2.4-0.4-2.7-1.6c-0.3-1.2,0.4-2.4,1.6-2.7   c0.4-0.1,0.8-0.1,1.2,0c0-0.1,0-0.1,0-0.2c-0.7-2.5,0.8-5,3.3-5.7C747.9,130.4,750.5,131.9,751.1,134.4L751.1,134.4z M768.7,163   c0.3,1.2-0.4,2.4-1.5,2.7c-1.2,0.3-2.4-0.4-2.7-1.6c-0.3-1.2,0.4-2.4,1.5-2.7C767.2,161.1,768.4,161.8,768.7,163L768.7,163z    M731.6,152.3c0.3,1.2-0.4,2.4-1.6,2.7c-1.2,0.3-2.4-0.4-2.7-1.5c-0.3-1.2,0.4-2.4,1.6-2.7C730.1,150.5,731.3,151.2,731.6,152.3   L731.6,152.3z M764.3,143.8c0.3,1.2-0.4,2.4-1.5,2.7c-1.2,0.3-2.4-0.4-2.7-1.5c-0.3-1.2,0.4-2.4,1.5-2.7   C762.8,141.9,764,142.6,764.3,143.8L764.3,143.8z M779.7,135.1c-0.3,0.5-0.8,0.8-1.3,1c-1.2,0.3-2.4-0.4-2.7-1.5   c-0.2-1,0.2-2,1-2.5c0-0.1,0-0.1,0-0.2c-0.7-2.5,0.8-5,3.3-5.7c2.5-0.7,5,0.8,5.7,3.3c0.7,2.5-0.8,5-3.3,5.7   C781.4,135.4,780.5,135.3,779.7,135.1L779.7,135.1z M762,156.3c0.7,2.5-0.8,5-3.3,5.7c-2.4,0.7-5-0.8-5.7-3.3   c-0.7-2.5,0.8-5,3.3-5.7C758.8,152.3,761.4,153.8,762,156.3L762,156.3z M773.4,121c0.2,2.2-1.2,4.3-3.4,4.9c-2.5,0.6-5-0.8-5.7-3.3   c-0.7-2.5,0.8-5,3.3-5.7c0.4-0.1,0.8-0.1,1.1-0.2c-0.5-0.8-0.9-1.8-1.2-2.8c-1.5-5.7,1.9-11.7,7.6-13.2c5.7-1.5,11.7,1.9,13.2,7.6   c1.5,5.7-1.9,11.6-7.6,13.2C778.1,122.3,775.6,122.1,773.4,121L773.4,121z M799.8,134c0.3,1.2-0.4,2.4-1.6,2.7   c-1.2,0.3-2.4-0.4-2.7-1.6c-0.3-1.2,0.4-2.4,1.6-2.7C798.3,132.1,799.5,132.8,799.8,134L799.8,134z M800.7,154.8   c1,3.6-1.2,7.4-4.8,8.4c-3.6,1-7.4-1.2-8.4-4.8c-0.9-3.6,1.2-7.4,4.8-8.4C796,148.9,799.7,151.1,800.7,154.8L800.7,154.8z    M805.1,111.5c0.7,2.5-0.8,5-3.3,5.7c-2.5,0.7-5-0.8-5.7-3.3c-0.6-2.5,0.8-5,3.3-5.7C802,107.6,804.5,109,805.1,111.5L805.1,111.5z   "
   id="path364" />
	<path
   fill-rule="evenodd"
   clip-rule="evenodd"
   fill="#75A140"
   d="M815.1,142c-27.6,7.5-90.7-6.5-63.2-109.5   C854.8,60.1,836.2,117.6,815.1,142L815.1,142z"
   id="path366" />
	<path
   fill-rule="evenodd"
   clip-rule="evenodd"
   fill="#5F8432"
   d="M815.1,142c-8.8,2.4-21.2,2.6-33.2-1.6c-0.6-5,1.7-10.1,6.3-12.8   c6.1-3.5,13.9-1.5,17.5,4.6c0.8-1.2,2-2.1,3.3-2.9c4.6-2.7,10.3-1.5,13.6,2.4C820.2,135.5,817.7,139,815.1,142L815.1,142z    M815.3,64.1c1.8,1.8,3.4,3.6,4.9,5.4c-0.2,1.3-1,2.5-2.3,3.3c-2.2,1.3-5,0.5-6.3-1.7c-1.3-2.2-0.5-5,1.7-6.3   C813.9,64.3,814.6,64.1,815.3,64.1L815.3,64.1z M824.5,75.7c0.8,1.3,1.5,2.6,2.1,3.9l-0.1,0.1c-1,0.6-2.4,0.2-3-0.8   c-0.6-1.1-0.2-2.4,0.8-3C824.4,75.8,824.5,75.7,824.5,75.7L824.5,75.7z M794.2,62.2c-1,0.6-2.4,0.2-3-0.8c-0.6-1.1-0.2-2.4,0.8-3   c1-0.6,2.4-0.2,3,0.8C795.6,60.3,795.2,61.6,794.2,62.2L794.2,62.2z M786.4,75.1c-2.2,1.3-5.1,0.5-6.3-1.7   c-0.8-1.3-0.8-2.8-0.2-4.1c-0.9,0.2-1.9-0.2-2.3-1.1c-0.6-1.1-0.2-2.4,0.8-3c1-0.6,2.4-0.2,3,0.8c0.2,0.4,0.3,0.8,0.3,1.2   c0.1,0,0.1-0.1,0.2-0.1c2.2-1.3,5-0.5,6.3,1.7C789.4,71,788.6,73.8,786.4,75.1L786.4,75.1z M763.4,99.5c-1.1,0.6-2.4,0.2-3-0.8   c-0.6-1.1-0.2-2.4,0.8-3c1-0.6,2.4-0.2,3,0.8C764.8,97.6,764.4,99,763.4,99.5L763.4,99.5z M764,60.9c-1,0.6-2.4,0.2-3-0.8   c-0.6-1.1-0.2-2.4,0.8-3c1-0.6,2.4-0.2,3,0.8C765.5,59,765.1,60.3,764,60.9L764,60.9z M780.7,90.3c-1,0.6-2.4,0.2-3-0.8   c-0.6-1.1-0.3-2.4,0.8-3c1-0.6,2.4-0.2,3,0.8C782.2,88.3,781.8,89.7,780.7,90.3L780.7,90.3z M793.1,102.9c-0.5-0.1-1-0.5-1.3-1   c-0.6-1.1-0.2-2.4,0.8-3c0.9-0.5,1.9-0.4,2.6,0.3c0,0,0.1-0.1,0.2-0.1c2.2-1.3,5-0.5,6.3,1.7c1.3,2.2,0.5,5-1.7,6.3   c-2.2,1.3-5,0.5-6.3-1.7C793.3,104.6,793.1,103.7,793.1,102.9L793.1,102.9z M768.1,91.3c-2.2,1.3-5,0.5-6.3-1.7   c-1.3-2.2-0.5-5,1.7-6.3c2.2-1.3,5-0.5,6.3,1.7C771.1,87.2,770.3,90.1,768.1,91.3L768.1,91.3z M805,93.2c-2.1,0.8-4.5,0-5.6-2   c-1.3-2.2-0.5-5,1.7-6.3c2.2-1.3,5-0.5,6.3,1.7c0.2,0.4,0.3,0.7,0.5,1.1c0.7-0.7,1.5-1.4,2.4-1.9c5.2-3,11.8-1.2,14.7,4   c3,5.1,1.2,11.7-4,14.7c-5.1,3-11.7,1.2-14.7-4C805,98.1,804.6,95.6,805,93.2L805,93.2z M799.4,122.1c-1,0.6-2.4,0.2-3-0.8   c-0.6-1.1-0.2-2.4,0.8-3c1-0.6,2.4-0.2,3,0.8C800.8,120.1,800.5,121.4,799.4,122.1L799.4,122.1z M779.5,128.3   c-3.3,1.9-7.4,0.8-9.3-2.5c-1.9-3.3-0.8-7.5,2.5-9.3c3.3-1.9,7.5-0.7,9.3,2.5C783.9,122.2,782.8,126.4,779.5,128.3L779.5,128.3z    M822.5,121.4c-2.2,1.3-5,0.5-6.3-1.7c-1.3-2.2-0.5-5,1.7-6.3c2.2-1.3,5-0.5,6.3,1.7C825.4,117.3,824.7,120.1,822.5,121.4   L822.5,121.4z"
   id="path368" />
	<path
   fill-rule="evenodd"
   clip-rule="evenodd"
   fill="#7EAD44"
   d="M795.6,138.9c-14.4-24.7-17.2-89.4,89.3-89.4   C885,156.1,824.6,153,795.6,138.9L795.6,138.9z"
   id="path370" />
	<path
   fill-rule="evenodd"
   clip-rule="evenodd"
   fill="#658C35"
   d="M795.6,138.9c-4.6-7.9-8-19.9-7.1-32.5c4.7-1.9,10.2-1,14,2.8   c5,5,5,13,0.1,18.1c1.3,0.5,2.6,1.3,3.7,2.4c3.7,3.7,4.1,9.6,1.2,13.8C803.2,142.2,799.2,140.7,795.6,138.9L795.6,138.9z    M870.9,118.9c-1.3,2.2-2.6,4.2-3.9,6.1c-1.3,0.1-2.7-0.3-3.7-1.3c-1.8-1.8-1.8-4.8,0-6.5c1.8-1.8,4.8-1.8,6.5,0   C870.3,117.7,870.6,118.3,870.9,118.9L870.9,118.9z M862,130.9c-1,1.1-2.1,2.1-3.2,3l-0.1-0.1c-0.9-0.9-0.9-2.2,0-3.1   c0.8-0.9,2.2-0.9,3.1,0C861.9,130.8,862,130.8,862,130.9L862,130.9z M867.2,98.1c-0.9-0.9-0.9-2.2,0-3.1c0.8-0.8,2.2-0.8,3.1,0   c0.8,0.9,0.8,2.2,0,3.1C869.5,98.9,868.1,98.9,867.2,98.1L867.2,98.1z M852.7,93.9c-1.8-1.8-1.8-4.8,0-6.5c1-1.1,2.5-1.5,3.9-1.3   c-0.4-0.8-0.3-1.9,0.4-2.5c0.8-0.9,2.2-0.9,3.1,0c0.8,0.8,0.8,2.2,0,3.1c-0.3,0.3-0.7,0.5-1.1,0.6c0.1,0.1,0.1,0.1,0.2,0.2   c1.8,1.8,1.8,4.7,0,6.5C857.5,95.7,854.5,95.7,852.7,93.9L852.7,93.9z M823.2,77.9c-0.9-0.9-0.9-2.3,0-3.1c0.8-0.9,2.2-0.9,3.1,0   c0.9,0.8,0.9,2.2,0,3.1C825.4,78.8,824,78.8,823.2,77.9L823.2,77.9z M860.7,68.6c-0.9-0.9-0.9-2.2,0-3.1c0.8-0.8,2.2-0.8,3.1,0   c0.9,0.9,0.9,2.2,0,3.1C862.9,69.5,861.5,69.5,860.7,68.6L860.7,68.6z M836.6,92.3c-0.8-0.8-0.8-2.2,0-3.1c0.9-0.8,2.2-0.8,3.1,0   c0.8,0.9,0.8,2.3,0,3.1C838.8,93.2,837.5,93.2,836.6,92.3L836.6,92.3z M827.6,107.6c0-0.6,0.2-1.1,0.7-1.5c0.8-0.9,2.2-0.9,3.1,0   c0.7,0.7,0.8,1.8,0.3,2.6c0.1,0,0.1,0.1,0.2,0.1c1.8,1.8,1.8,4.8,0,6.5c-1.8,1.8-4.8,1.8-6.5,0c-1.8-1.8-1.8-4.7,0-6.5   C826,108.2,826.8,107.7,827.6,107.6L827.6,107.6z M832.3,80.4c-1.8-1.8-1.8-4.7,0-6.5c1.8-1.8,4.8-1.8,6.5,0c1.8,1.8,1.8,4.7,0,6.5   C837.1,82.2,834.2,82.2,832.3,80.4L832.3,80.4z M840.1,116.6c-1.3-1.8-1.2-4.3,0.5-6c1.8-1.8,4.7-1.8,6.5,0c1.8,1.8,1.8,4.7,0,6.5   c-0.3,0.3-0.6,0.5-0.9,0.7c0.9,0.5,1.7,1.1,2.4,1.8c4.2,4.2,4.2,11,0,15.2c-4.2,4.2-11,4.2-15.2,0c-4.2-4.2-4.2-11,0-15.2   C835.3,117.8,837.7,116.8,840.1,116.6L840.1,116.6z M810.8,118.6c-0.9-0.8-0.9-2.2,0-3.1c0.8-0.8,2.2-0.8,3.1,0   c0.9,0.9,0.9,2.3,0,3.1C813.1,119.5,811.7,119.5,810.8,118.6L810.8,118.6z M799.6,101c-2.7-2.7-2.7-7,0-9.7c2.7-2.7,7-2.7,9.7,0   c2.7,2.7,2.7,7,0,9.7C806.6,103.7,802.3,103.7,799.6,101L799.6,101z M817.4,140.7c-1.8-1.8-1.8-4.7,0-6.5c1.8-1.8,4.8-1.8,6.6,0   c1.8,1.8,1.8,4.8,0,6.5C822.1,142.5,819.2,142.5,817.4,140.7L817.4,140.7z"
   id="path372" />
	<path
   fill-rule="evenodd"
   clip-rule="evenodd"
   fill="#88C559"
   d="M793.5,119.3c20.1-20.3,81.8-39.7,109.4,63.2   C800.1,210.1,787.4,150.9,793.5,119.3L793.5,119.3z"
   id="path374" />
	<path
   fill-rule="evenodd"
   clip-rule="evenodd"
   fill="#6AAA38"
   d="M793.5,119.3c6.4-6.5,17.1-12.9,29.6-15.2c3,4,3.6,9.6,0.9,14.2   c-3.5,6.1-11.3,8.2-17.4,4.8c-0.1,1.4-0.6,2.8-1.4,4.2c-2.6,4.6-8.2,6.5-12.9,4.7C792.3,127.5,792.8,123.2,793.5,119.3L793.5,119.3   z M832.3,186.9c-2.4-0.6-4.8-1.4-6.9-2.2c-0.5-1.2-0.4-2.7,0.3-4c1.3-2.2,4.1-2.9,6.3-1.7c2.2,1.3,2.9,4.1,1.7,6.3   C833.3,186,832.9,186.5,832.3,186.9L832.3,186.9z M818.5,181.4c-1.3-0.7-2.6-1.5-3.7-2.3l0-0.1c0.6-1.1,2-1.4,3-0.8   c1,0.6,1.4,1.9,0.8,3C818.5,181.3,818.5,181.4,818.5,181.4L818.5,181.4z M851.5,177.9c0.6-1.1,1.9-1.4,3-0.8c1,0.6,1.4,2,0.8,3   c-0.6,1.1-1.9,1.4-3,0.8C851.2,180.3,850.9,179,851.5,177.9L851.5,177.9z M851.8,162.8c1.3-2.2,4.1-3,6.3-1.7   c1.3,0.7,2.1,2,2.3,3.4c0.7-0.6,1.7-0.7,2.6-0.2c1,0.6,1.4,2,0.8,3c-0.6,1.1-2,1.4-3,0.8c-0.4-0.2-0.7-0.5-0.8-0.9   c0,0.1-0.1,0.1-0.1,0.2c-1.3,2.2-4.1,3-6.3,1.7C851.3,167.9,850.5,165.1,851.8,162.8L851.8,162.8z M859.6,130.2   c0.6-1.1,1.9-1.4,3-0.8c1,0.6,1.4,1.9,0.8,3c-0.6,1.1-1.9,1.4-3,0.8C859.3,132.6,858.9,131.2,859.6,130.2L859.6,130.2z M878.2,164   c0.6-1.1,2-1.4,3-0.8c1,0.6,1.4,2,0.8,3c-0.6,1.1-2,1.4-3,0.8C878,166.4,877.6,165,878.2,164L878.2,164z M849.1,146.9   c0.6-1.1,2-1.4,3-0.8c1,0.6,1.4,1.9,0.8,3c-0.6,1.1-2,1.4-3,0.8C848.8,149.3,848.5,147.9,849.1,146.9L849.1,146.9z M832.1,142.2   c0.6-0.1,1.1-0.1,1.6,0.2c1,0.6,1.4,1.9,0.8,3c-0.5,0.8-1.5,1.3-2.4,1c0,0.1-0.1,0.1-0.1,0.2c-1.3,2.2-4.1,3-6.3,1.7   c-2.2-1.3-3-4.1-1.7-6.3c1.3-2.2,4.1-3,6.3-1.7C831.1,140.8,831.7,141.4,832.1,142.2L832.1,142.2z M859.5,139.7   c1.3-2.2,4.1-3,6.3-1.7c2.2,1.3,3,4.1,1.7,6.3c-1.3,2.2-4.1,3-6.3,1.7C859,144.7,858.3,141.9,859.5,139.7L859.5,139.7z    M826.6,156.5c1.4-1.7,3.9-2.2,5.9-1.1c2.2,1.3,3,4.1,1.7,6.3c-1.3,2.2-4.1,3-6.3,1.7c-0.3-0.2-0.6-0.4-0.9-0.7   c-0.2,1-0.6,1.9-1.2,2.8c-3,5.1-9.6,6.9-14.7,4c-5.1-3-6.9-9.6-3.9-14.7c3-5.1,9.6-6.9,14.7-3.9   C824.2,152.2,825.8,154.3,826.6,156.5L826.6,156.5z M817.1,128.7c0.6-1.1,2-1.4,3-0.8c1,0.6,1.4,2,0.8,3c-0.6,1.1-2,1.4-3,0.8   C816.8,131.1,816.5,129.8,817.1,128.7L817.1,128.7z M831.1,113.4c1.9-3.3,6.1-4.4,9.3-2.5c3.3,1.9,4.4,6.1,2.5,9.3   c-1.9,3.3-6.1,4.4-9.3,2.5C830.4,120.8,829.3,116.6,831.1,113.4L831.1,113.4z M797.4,140.8c1.3-2.2,4.1-3,6.3-1.7   c2.2,1.3,3,4.1,1.7,6.3c-1.3,2.2-4.1,3-6.3,1.7C796.9,145.9,796.1,143,797.4,140.8L797.4,140.8z"
   id="path376" />
</g>
<g
   id="g442">
	<path
   fill-rule="evenodd"
   clip-rule="evenodd"
   fill="#D9D997"
   d="M779.7,672.5l78.6-12.5l19.2-58.3c3.1-9.4,17.3-4.7,14.2,4.7   l-16.8,51l216.6-34.3c14.1-2.2,27.4,7.5,29.7,21.5l35.5,224.2c2.2,14.1-7.5,27.4-21.6,29.7l-311.8,49.5   c-14.1,2.2-27.4-7.5-29.7-21.6l-35.5-224.1C755.9,688.1,765.6,674.8,779.7,672.5L779.7,672.5z"
   id="path380" />
	<path
   fill-rule="evenodd"
   clip-rule="evenodd"
   fill="#996633"
   d="M772.7,665.5l311.8-49.4c14.1-2.2,27.4,7.5,29.7,21.5l35.5,224.2   c2.2,14.1-7.5,27.4-21.6,29.7l-311.8,49.5c-14.1,2.2-27.4-7.5-29.7-21.6l-35.5-224.1C748.9,681.1,758.6,667.8,772.7,665.5   L772.7,665.5z"
   id="path382" />
	<polygon
   fill-rule="evenodd"
   clip-rule="evenodd"
   fill="#FFFFFF"
   points="930.4,652.7 1102.1,625.4 1142,877.2 970.3,904.4  "
   id="polygon384" />
	<polygon
   fill-rule="evenodd"
   clip-rule="evenodd"
   fill="#E6E6E6"
   points="758.8,679.9 930.4,652.7 970.3,904.4 798.7,931.6  "
   id="polygon386" />
	<polygon
   fill-rule="evenodd"
   clip-rule="evenodd"
   fill="#B3B3B3"
   points="953.9,691.6 1091.8,669.7 1092,671 954.2,692.9  "
   id="polygon388" />
	<polygon
   fill-rule="evenodd"
   clip-rule="evenodd"
   fill="#B3B3B3"
   points="956.6,708.2 1094.4,686.4 1094.6,687.7 956.8,709.6  "
   id="polygon390" />
	<polygon
   fill-rule="evenodd"
   clip-rule="evenodd"
   fill="#B3B3B3"
   points="959.2,724.9 1097.1,703.1 1097.3,704.4 959.5,726.3  "
   id="polygon392" />
	<polygon
   fill-rule="evenodd"
   clip-rule="evenodd"
   fill="#B3B3B3"
   points="961.9,741.6 1099.7,719.8 1099.9,721.1 962.1,743  "
   id="polygon394" />
	<polygon
   fill-rule="evenodd"
   clip-rule="evenodd"
   fill="#B3B3B3"
   points="964.5,758.3 1102.4,736.5 1102.6,737.8 964.8,759.7  "
   id="polygon396" />
	<polygon
   fill-rule="evenodd"
   clip-rule="evenodd"
   fill="#B3B3B3"
   points="967.2,775 1105,753.2 1105.2,754.5 967.4,776.4  "
   id="polygon398" />
	<polygon
   fill-rule="evenodd"
   clip-rule="evenodd"
   fill="#B3B3B3"
   points="969.8,791.7 1107.6,769.9 1107.8,771.2 970,793.1  "
   id="polygon400" />
	<polygon
   fill-rule="evenodd"
   clip-rule="evenodd"
   fill="#B3B3B3"
   points="972.5,808.4 1110.3,786.6 1110.5,787.9 972.7,809.8  "
   id="polygon402" />
	<polygon
   fill-rule="evenodd"
   clip-rule="evenodd"
   fill="#B3B3B3"
   points="975.1,825.1 1112.9,803.2 1113.1,804.6 975.3,826.5  "
   id="polygon404" />
	<polygon
   fill-rule="evenodd"
   clip-rule="evenodd"
   fill="#B3B3B3"
   points="977.7,841.8 1115.6,819.9 1115.8,821.3 978,843.2  "
   id="polygon406" />
	<polygon
   fill-rule="evenodd"
   clip-rule="evenodd"
   fill="#B3B3B3"
   points="980.4,858.5 1118.2,836.6 1118.5,838 980.6,859.9  "
   id="polygon408" />
	<polygon
   fill-rule="evenodd"
   clip-rule="evenodd"
   fill="#B3B3B3"
   points="782.3,718.8 920.1,696.9 920.3,698.3 782.5,720.1  "
   id="polygon410" />
	<polygon
   fill-rule="evenodd"
   clip-rule="evenodd"
   fill="#B3B3B3"
   points="784.9,735.5 922.8,713.6 923,715 785.2,736.8  "
   id="polygon412" />
	<polygon
   fill-rule="evenodd"
   clip-rule="evenodd"
   fill="#B3B3B3"
   points="787.6,752.2 925.4,730.3 925.6,731.7 787.8,753.5  "
   id="polygon414" />
	<polygon
   fill-rule="evenodd"
   clip-rule="evenodd"
   fill="#B3B3B3"
   points="790.2,768.9 928.1,747 928.3,748.4 790.5,770.2  "
   id="polygon416" />
	<polygon
   fill-rule="evenodd"
   clip-rule="evenodd"
   fill="#B3B3B3"
   points="792.9,785.6 930.7,763.7 930.9,765.1 793.1,786.9  "
   id="polygon418" />
	<polygon
   fill-rule="evenodd"
   clip-rule="evenodd"
   fill="#B3B3B3"
   points="795.5,802.3 933.3,780.4 933.5,781.8 795.7,803.6  "
   id="polygon420" />
	<polygon
   fill-rule="evenodd"
   clip-rule="evenodd"
   fill="#B3B3B3"
   points="798.1,819 936,797.1 936.2,798.4 798.4,820.3  "
   id="polygon422" />
	<polygon
   fill-rule="evenodd"
   clip-rule="evenodd"
   fill="#B3B3B3"
   points="800.8,835.7 938.6,813.8 938.9,815.1 801,837  "
   id="polygon424" />
	<polygon
   fill-rule="evenodd"
   clip-rule="evenodd"
   fill="#B3B3B3"
   points="803.5,852.3 941.3,830.5 941.5,831.8 803.7,853.7  "
   id="polygon426" />
	<polygon
   fill-rule="evenodd"
   clip-rule="evenodd"
   fill="#B3B3B3"
   points="806.1,869 943.9,847.2 944.1,848.5 806.3,870.4  "
   id="polygon428" />
	<polygon
   fill-rule="evenodd"
   clip-rule="evenodd"
   fill="#B3B3B3"
   points="808.8,885.7 946.6,863.9 946.8,865.2 809,887.1  "
   id="polygon430" />
	<polygon
   fill-rule="evenodd"
   clip-rule="evenodd"
   fill="#336699"
   points="865.1,611.1 879.2,615.8 841.1,731.4 826.9,726.7  "
   id="polygon432" />
	<path
   fill-rule="evenodd"
   clip-rule="evenodd"
   fill="#336699"
   d="M866,608.5l14.2,4.7l4.5-13.8c1.3-3.9-0.8-8.2-4.7-9.5l0,0   c-3.9-1.3-8.2,0.9-9.4,4.8L866,608.5z"
   id="path434" />
	<polygon
   fill-rule="evenodd"
   clip-rule="evenodd"
   fill="#FFFFFF"
   points="866,608.5 880.1,613.2 879.2,615.8 865.1,611.1  "
   id="polygon436" />
	<polygon
   fill-rule="evenodd"
   clip-rule="evenodd"
   fill="#FFCC99"
   points="826.9,726.7 841.1,731.4 829.3,748.9 826.1,747.9  "
   id="polygon438" />
	<polygon
   fill-rule="evenodd"
   clip-rule="evenodd"
   fill="#4D4D4D"
   points="825.1,756 829.3,748.9 826.1,747.9  "
   id="polygon440" />
</g>
</svg>
